<?xml version="1.0" encoding="UTF-8"?>
<svg width="1651px" height="748px" viewBox="0 0 1651 748" version="1.1" xmlns="http://www.w3.org/2000/svg" xmlns:xlink="http://www.w3.org/1999/xlink">
    <!-- Generator: Sketch 44.1 (41455) - http://www.bohemiancoding.com/sketch -->
    <title>Group 12</title>
    <desc>Created with Sketch.</desc>
    <defs>
        <polygon id="path-1" points="861.557219 498.155257 861.557219 249.489656 0.000196355053 249.489656 0.000196355053 498.155257"></polygon>
    </defs>
    <g id="Page-1" stroke="none" stroke-width="1" fill="none" fill-rule="evenodd">
        <g id="Search" transform="translate(0.000000, -69.000000)">
            <g id="Group-7" transform="translate(0.000000, 69.162000)">
                <g id="Group-12">
                    <path d="M860.909442,83.3371261 L793.875688,122.031922 C793.053941,120.951177 791.823775,120.214975 790.409035,120.036323 L790.409035,42.6418226 L857.442789,3.94702628 C858.265518,5.02777135 859.494702,5.76397372 860.909442,5.94262549 L860.909442,83.3371261 Z M860.909442,166.974623 L860.909442,244.369124 C859.494702,244.547775 858.265518,245.283978 857.442789,246.364723 L790.409035,207.670908 L790.409035,130.275426 C791.823775,130.096774 793.053941,129.360572 793.875688,128.279827 L860.909442,166.974623 Z M789.113089,120.036323 C787.698349,120.214975 786.469164,120.951177 785.646436,122.031922 L718.613663,83.3371261 L718.613663,5.94262549 C720.027422,5.76397372 721.256606,5.02777135 722.079335,3.94702628 L753.53939,22.1066846 L789.113089,42.6418226 L789.113089,120.036323 Z M789.113089,207.670908 L722.079335,246.364723 C721.256606,245.283978 720.027422,244.547775 718.613663,244.369124 L718.613663,166.974623 L754.187363,146.439485 L785.646436,128.279827 C786.469164,129.360572 787.698349,130.096774 789.113089,130.275426 L789.113089,207.670908 Z M717.964709,165.851669 L650.948627,127.16767 C651.209779,126.548279 651.354101,125.869009 651.354101,125.156365 C651.354101,124.44274 651.209779,123.76347 650.949609,123.14506 L717.964709,84.4600802 L784.980791,123.14506 C784.719638,123.76347 784.575317,124.44274 784.575317,125.156365 C784.575317,125.869009 784.719638,126.548279 784.980791,127.16767 L717.964709,165.851669 Z M717.316736,244.369124 C715.901996,244.547775 714.672811,245.283978 713.850082,246.364723 L646.816328,207.670908 L646.816328,130.275426 C648.231069,130.096774 649.460253,129.360572 650.282982,128.279827 L717.316736,166.974623 L717.316736,244.369124 Z M646.816328,42.6418226 L713.850082,3.94702628 C714.67183,5.02777135 715.901996,5.76397372 717.316736,5.94262549 L717.316736,83.3371261 L650.282982,122.031922 C649.460253,120.951177 648.231069,120.214975 646.816328,120.036323 L646.816328,42.6418226 Z M645.520383,120.036323 C644.104661,120.214975 642.875477,120.951177 642.053729,122.031922 L575.019975,83.3371261 L575.019975,5.94262549 C576.434716,5.76397372 577.6639,5.02777135 578.485647,3.94702628 L609.945702,22.1066846 L645.520383,42.6418226 L645.520383,120.036323 Z M645.520383,207.670908 L578.485647,246.364723 C577.6639,245.283978 576.434716,244.547775 575.019975,244.369124 L575.019975,166.974623 L610.594656,146.439485 L642.053729,128.279827 C642.875477,129.360572 644.104661,130.096774 645.520383,130.275426 L645.520383,207.670908 Z M574.372003,165.851669 L507.355921,127.16767 C507.616092,126.548279 507.761395,125.869009 507.761395,125.156365 C507.761395,124.44274 507.616092,123.76347 507.355921,123.14506 L574.372003,84.4600802 L574.372003,84.4600802 L641.387103,123.14506 C641.126932,123.76347 640.982611,124.44274 640.982611,125.156365 C640.982611,125.869009 641.126932,126.548279 641.388085,127.16767 L574.372003,165.851669 Z M573.723048,244.369124 C572.308308,244.547775 571.080105,245.283978 570.257376,246.364723 L503.223622,207.670908 L503.223622,130.275426 C504.638363,130.096774 505.867547,129.360572 506.690276,128.279827 L573.723048,166.974623 L573.723048,244.369124 Z M503.223622,42.6418226 L570.257376,3.94702628 C571.079123,5.02777135 572.308308,5.76397372 573.723048,5.94262549 L573.723048,83.3371261 L506.690276,122.031922 C505.867547,120.951177 504.638363,120.214975 503.223622,120.036323 L503.223622,42.6418226 Z M501.927677,120.036323 C500.511955,120.214975 499.28277,120.951177 498.460041,122.031922 L431.427269,83.3371261 L431.427269,5.94262549 C432.84201,5.76397372 434.071194,5.02777135 434.892941,3.94702628 L466.352996,22.1066846 L501.927677,42.6418226 L501.927677,120.036323 Z M501.927677,207.670908 L434.893923,246.364723 C434.071194,245.283978 432.84201,244.547775 431.427269,244.369124 L431.427269,166.974623 L467.000969,146.439485 L498.461023,128.279827 C499.28277,129.360572 500.512937,130.096774 501.927677,130.275426 L501.927677,207.670908 Z M430.779297,165.851669 L363.763215,127.16767 C364.023385,126.548279 364.168688,125.869009 364.168688,125.156365 C364.168688,124.44274 364.023385,123.76347 363.763215,123.14506 L430.779297,84.4600802 L497.795379,123.14506 C497.534226,123.76347 497.388923,124.44274 497.388923,125.156365 C497.388923,125.869009 497.534226,126.548279 497.795379,127.16767 L430.779297,165.851669 Z M430.130342,244.369124 C428.715602,244.547775 427.486417,245.283978 426.663688,246.364723 L359.630916,207.670908 L359.630916,130.275426 C361.045656,130.096774 362.274841,129.360572 363.09757,128.279827 L430.130342,166.974623 L430.130342,244.369124 Z M359.630916,42.6418226 L426.663688,3.94702628 C427.486417,5.02777135 428.715602,5.76397372 430.130342,5.94262549 L430.130342,83.3371261 L363.09757,122.031922 C362.274841,120.951177 361.045656,120.214975 359.630916,120.036323 L359.630916,42.6418226 Z M358.333989,120.036323 C356.919249,120.214975 355.690064,120.951177 354.867335,122.031922 L287.834563,83.3371261 L287.834563,5.94262549 C289.249303,5.76397372 290.477506,5.02777135 291.300235,3.94702628 L322.76029,22.1066846 L358.333989,42.6418226 L358.333989,120.036323 Z M358.333989,207.670908 L291.300235,246.364723 C290.477506,245.283978 289.249303,244.547775 287.834563,244.369124 L287.834563,166.974623 L323.408262,146.439485 L354.867335,128.279827 C355.690064,129.360572 356.919249,130.096774 358.333989,130.275426 L358.333989,207.670908 Z M287.185609,165.851669 L220.169527,127.16767 C220.430679,126.548279 220.575,125.869009 220.575,125.156365 C220.575,124.44274 220.430679,123.76347 220.170508,123.14506 L287.185609,84.4600802 L354.201691,123.14506 C353.94152,123.76347 353.796217,124.44274 353.796217,125.156365 C353.796217,125.869009 353.94152,126.548279 354.201691,127.16767 L287.185609,165.851669 Z M286.537636,244.369124 C285.122896,244.547775 283.893711,245.283978 283.070982,246.364723 L216.03821,207.670908 L216.03821,130.275426 C217.45295,130.096774 218.682135,129.360572 219.503882,128.279827 L286.537636,166.974623 L286.537636,244.369124 Z M216.03821,42.6418226 L283.070982,3.94702628 C283.893711,5.02777135 285.122896,5.76397372 286.537636,5.94262549 L286.537636,83.3371261 L219.503882,122.031922 C218.682135,120.951177 217.45295,120.214975 216.03821,120.036323 L216.03821,42.6418226 Z M214.741283,120.036323 C213.326543,120.214975 212.097358,120.951177 211.274629,122.031922 L144.240875,83.3371261 L144.240875,5.94262549 C145.655615,5.76397372 146.8848,5.02777135 147.707529,3.94702628 L179.167584,22.1066846 L214.741283,42.6418226 L214.741283,120.036323 Z M214.741283,207.670908 L147.707529,246.364723 C146.8848,245.283978 145.655615,244.547775 144.240875,244.369124 L144.240875,166.974623 L179.815556,146.439485 L211.274629,128.279827 C212.097358,129.360572 213.326543,130.096774 214.741283,130.275426 L214.741283,207.670908 Z M143.592903,165.851669 L76.5768205,127.16767 C76.8379731,126.548279 76.9822943,125.869009 76.9822943,125.156365 C76.9822943,124.44274 76.8379731,123.76347 76.5768205,123.14506 L143.592903,84.4600802 L210.608985,123.14506 C210.347832,123.76347 210.203511,124.44274 210.203511,125.156365 C210.203511,125.869009 210.347832,126.548279 210.608985,127.16767 L143.592903,165.851669 Z M142.943948,244.369124 C141.53019,244.547775 140.301005,245.283978 139.478276,246.364723 L72.4445221,207.670908 L72.4445221,130.275426 C73.8592624,130.096774 75.0884469,129.360572 75.9111759,128.279827 L142.943948,166.974623 L142.943948,244.369124 Z M72.4445221,42.6418226 L139.478276,3.94702628 C140.301005,5.02777135 141.53019,5.76397372 142.943948,5.94262549 L142.943948,83.3371261 L75.9111759,122.031922 C75.0894287,120.951177 73.8592624,120.214975 72.4445221,120.036323 L72.4445221,42.6418226 Z M71.1485768,120.036323 C69.7338364,120.214975 68.5036702,120.951177 67.681923,122.031922 L0.64816902,83.3371261 L0.64816902,5.94262549 C2.06290934,5.76397372 3.29209385,5.02777135 4.11482278,3.94702628 L35.5738957,22.1066846 L71.1485768,42.6418226 L71.1485768,120.036323 Z M71.1485768,207.670908 L4.11482278,246.364723 C3.29209385,245.283978 2.06290934,244.547775 0.64816902,244.369124 L0.64816902,166.974623 L36.2218683,146.439485 L67.681923,128.279827 C68.5036702,129.360572 69.7338364,130.096774 71.1485768,130.275426 L71.1485768,207.670908 Z M856.37167,0.822583443 C856.37167,1.53620894 856.515991,2.21547832 856.777144,2.8338883 L789.761062,41.5188686 L722.74498,2.8338883 C723.006133,2.21547832 723.150454,1.53620894 723.150454,0.822583443 L717.964709,0.822583443 L712.778964,0.822583443 C712.778964,1.53620894 712.923285,2.21547832 713.184438,2.8338883 L646.168356,41.5188686 L579.152274,2.8338883 C579.412445,2.21547832 579.557748,1.53620894 579.557748,0.822583443 L574.372003,0.822583443 L569.185276,0.822583443 C569.185276,1.53620894 569.330579,2.21547832 569.59075,2.8338883 L502.57565,41.5188686 L435.559568,2.8338883 C435.819738,2.21547832 435.965041,1.53620894 435.965041,0.822583443 L430.779297,0.822583443 L425.593552,0.822583443 C425.593552,1.53620894 425.737873,2.21547832 425.998044,2.8338883 L358.981962,41.5188686 L291.966862,2.8338883 C292.227032,2.21547832 292.371354,1.53620894 292.371354,0.822583443 L287.185609,0.822583443 L281.999864,0.822583443 C281.999864,1.53620894 282.145167,2.21547832 282.405338,2.8338883 L215.389256,41.5188686 L148.373174,2.8338883 C148.634326,2.21547832 148.778647,1.53620894 148.778647,0.822583443 L143.592903,0.822583443 L138.407158,0.822583443 C138.407158,1.53620894 138.551479,2.21547832 138.812631,2.8338883 L71.7965494,41.5188686 L4.78046743,2.8338883 C5.04162005,2.21547832 5.18594123,1.53620894 5.18594123,0.822583443 L0.000196355053,0.822583443 L0.000196355053,6.0074113 L0.000196355053,83.711117 L0.000196355053,84.4600802 L67.0162784,123.14506 C66.7551257,123.76347 66.6108046,124.44274 66.6108046,125.156365 C66.6108046,125.869009 66.7551257,126.548279 67.0162784,127.16767 L0.000196355053,165.851669 L0.000196355053,166.600632 L0.000196355053,167.347632 L0.000196355053,244.303356 L0.000196355053,249.489166 L5.18594123,249.489166 C5.18594123,248.77554 5.04162005,248.096271 4.78046743,247.477861 L71.7965494,208.79288 L138.812631,247.477861 C138.551479,248.096271 138.407158,248.77554 138.407158,249.489166 L143.592903,249.489166 L148.778647,249.489166 C148.778647,248.77554 148.634326,248.096271 148.373174,247.477861 L215.389256,208.79288 L282.405338,247.477861 C282.145167,248.096271 281.999864,248.77554 281.999864,249.489166 L287.185609,249.489166 L292.371354,249.489166 C292.371354,248.77554 292.227032,248.096271 291.966862,247.477861 L358.981962,208.79288 L425.998044,247.477861 C425.737873,248.096271 425.593552,248.77554 425.593552,249.489166 L430.779297,249.489166 L435.965041,249.489166 C435.965041,248.77554 435.819738,248.096271 435.559568,247.477861 L502.57565,208.79288 L569.59075,247.477861 C569.330579,248.096271 569.185276,248.77554 569.185276,249.489166 L574.372003,249.489166 L579.557748,249.489166 C579.557748,248.77554 579.412445,248.096271 579.152274,247.477861 L646.168356,208.79288 L713.184438,247.477861 C712.923285,248.096271 712.778964,248.77554 712.778964,249.489166 L717.964709,249.489166 L723.150454,249.489166 C723.150454,248.77554 723.006133,248.096271 722.74498,247.477861 L789.761062,208.79288 L856.777144,247.477861 C856.515991,248.096271 856.37167,248.77554 856.37167,249.489166 L861.557415,249.489166 L861.557415,244.303356 L861.557415,167.347632 L861.557415,166.600632 L861.557415,165.851669 L794.541333,127.16767 C794.802486,126.548279 794.946807,125.869009 794.946807,125.156365 C794.946807,124.44274 794.802486,123.76347 794.541333,123.14506 L861.557415,84.4600802 L861.557415,83.711117 L861.557415,6.0074113 L861.557415,0.822583443 L856.37167,0.822583443 Z" id="Fill-1" fill="#FEFEFE"></path>
                    <mask id="mask-2" fill="white">
                        <use xlink:href="#path-1"></use>
                    </mask>
                    <g id="Clip-5"></g>
                    <path d="M860.909442,503.453754 L860.909442,580.848255 L793.875688,619.543051 C793.053941,618.462306 791.823775,617.726104 790.409035,617.547452 L790.409035,540.153933 L857.442789,501.457174 C858.265518,502.537919 859.494702,503.275103 860.909442,503.453754 L860.909442,503.453754 Z M860.909442,664.48477 L860.909442,741.880252 C859.494702,742.058904 858.265518,742.796088 857.442789,743.875852 L790.409035,705.181055 L790.409035,627.786555 C791.823775,627.607903 793.053941,626.871701 793.875688,625.790955 L860.909442,664.48477 Z M789.113089,617.547452 C787.698349,617.726104 786.469164,618.462306 785.646436,619.543051 L718.613663,580.848255 L718.613663,503.453754 C720.027422,503.275103 721.256606,502.5389 722.079335,501.458155 L753.53939,519.617814 L789.113089,540.153933 L789.113089,617.547452 Z M789.113089,705.181055 L722.079335,743.875852 C721.256606,742.796088 720.027422,742.058904 718.613663,741.880252 L718.613663,664.48477 L754.187363,643.949632 L785.646436,625.790955 C786.469164,626.871701 787.698349,627.607903 789.113089,627.786555 L789.113089,705.181055 Z M717.964709,663.363779 L650.948627,624.678799 C651.209779,624.060389 651.354101,623.380138 651.354101,622.666513 C651.354101,621.953869 651.209779,621.274599 650.949609,620.656189 L717.964709,581.971209 L717.964709,581.971209 L717.964709,581.971209 L784.980791,620.656189 C784.719638,621.274599 784.575317,621.953869 784.575317,622.666513 C784.575317,623.380138 784.719638,624.060389 784.980791,624.678799 L717.964709,663.363779 Z M717.316736,741.880252 C715.901996,742.058904 714.672811,742.796088 713.850082,743.875852 L646.816328,705.181055 L646.816328,627.786555 C648.231069,627.607903 649.460253,626.871701 650.282982,625.790955 L717.316736,664.48477 L717.316736,741.880252 Z M646.816328,540.153933 L713.850082,501.457174 C714.67183,502.537919 715.901996,503.275103 717.316736,503.453754 L717.316736,580.848255 L650.282982,619.543051 C649.460253,618.462306 648.231069,617.726104 646.816328,617.547452 L646.816328,540.153933 Z M645.520383,617.547452 C644.104661,617.726104 642.875477,618.462306 642.053729,619.543051 L575.019975,580.848255 L575.019975,503.453754 C576.434716,503.275103 577.6639,502.5389 578.485647,501.458155 L609.945702,519.617814 L645.520383,540.153933 L645.520383,617.547452 Z M645.520383,705.181055 L578.485647,743.875852 C577.6639,742.796088 576.434716,742.058904 575.019975,741.880252 L575.019975,664.48477 L610.594656,643.949632 L642.053729,625.790955 C642.875477,626.871701 644.104661,627.607903 645.520383,627.786555 L645.520383,705.181055 Z M574.372003,663.363779 L507.355921,624.678799 C507.616092,624.060389 507.761395,623.380138 507.761395,622.666513 C507.761395,621.953869 507.616092,621.274599 507.355921,620.656189 L574.372003,581.971209 L574.372003,581.971209 L574.372003,581.971209 L641.387103,620.656189 C641.126932,621.274599 640.982611,621.953869 640.982611,622.666513 C640.982611,623.380138 641.126932,624.060389 641.388085,624.678799 L574.372003,663.363779 Z M573.723048,741.880252 C572.308308,742.058904 571.080105,742.796088 570.257376,743.875852 L503.223622,705.181055 L503.223622,627.786555 C504.638363,627.607903 505.867547,626.871701 506.690276,625.790955 L573.723048,664.48477 L573.723048,741.880252 Z M503.223622,540.153933 L570.257376,501.457174 C571.079123,502.537919 572.308308,503.275103 573.723048,503.453754 L573.723048,580.848255 L506.690276,619.543051 C505.867547,618.462306 504.638363,617.726104 503.223622,617.547452 L503.223622,540.153933 Z M501.927677,617.547452 C500.511955,617.726104 499.28277,618.462306 498.460041,619.543051 L431.427269,580.848255 L431.427269,503.453754 C432.84201,503.275103 434.071194,502.5389 434.892941,501.458155 L466.352996,519.617814 L501.927677,540.153933 L501.927677,617.547452 Z M501.927677,705.181055 L434.893923,743.875852 C434.071194,742.796088 432.84201,742.058904 431.427269,741.880252 L431.427269,664.48477 L467.000969,643.949632 L498.461023,625.790955 C499.28277,626.871701 500.512937,627.607903 501.927677,627.786555 L501.927677,705.181055 Z M430.779297,663.363779 L363.763215,624.678799 C364.023385,624.060389 364.168688,623.380138 364.168688,622.666513 C364.168688,621.953869 364.023385,621.274599 363.763215,620.656189 L430.779297,581.971209 L430.779297,581.971209 L430.779297,581.971209 L497.795379,620.656189 C497.534226,621.274599 497.388923,621.953869 497.388923,622.666513 C497.388923,623.380138 497.534226,624.060389 497.795379,624.678799 L430.779297,663.363779 Z M430.130342,741.880252 C428.715602,742.058904 427.486417,742.796088 426.663688,743.875852 L359.630916,705.181055 L359.630916,627.786555 C361.045656,627.607903 362.274841,626.871701 363.09757,625.790955 L430.130342,664.48477 L430.130342,741.880252 Z M359.630916,540.153933 L426.663688,501.457174 C427.486417,502.537919 428.715602,503.275103 430.130342,503.453754 L430.130342,580.848255 L363.09757,619.543051 C362.274841,618.462306 361.045656,617.726104 359.630916,617.547452 L359.630916,540.153933 Z M358.333989,617.547452 C356.919249,617.726104 355.690064,618.462306 354.867335,619.543051 L287.834563,580.848255 L287.834563,503.453754 C289.249303,503.275103 290.477506,502.5389 291.300235,501.458155 L322.76029,519.617814 L358.333989,540.153933 L358.333989,617.547452 Z M358.333989,705.181055 L291.300235,743.875852 C290.477506,742.796088 289.249303,742.058904 287.834563,741.880252 L287.834563,664.48477 L323.408262,643.949632 L354.867335,625.790955 C355.690064,626.871701 356.919249,627.607903 358.333989,627.786555 L358.333989,705.181055 Z M287.185609,663.363779 L220.169527,624.678799 C220.430679,624.060389 220.575,623.380138 220.575,622.666513 C220.575,621.953869 220.430679,621.274599 220.170508,620.656189 L287.185609,581.971209 L287.185609,581.971209 L287.185609,581.971209 L354.201691,620.656189 C353.94152,621.274599 353.796217,621.953869 353.796217,622.666513 C353.796217,623.380138 353.94152,624.060389 354.201691,624.678799 L287.185609,663.363779 Z M286.537636,741.880252 C285.122896,742.058904 283.893711,742.796088 283.070982,743.875852 L216.03821,705.181055 L216.03821,627.786555 C217.45295,627.607903 218.682135,626.871701 219.503882,625.790955 L286.537636,664.48477 L286.537636,741.880252 Z M216.03821,540.153933 L283.070982,501.457174 C283.893711,502.537919 285.122896,503.275103 286.537636,503.453754 L286.537636,580.848255 L219.503882,619.543051 C218.682135,618.462306 217.45295,617.726104 216.03821,617.547452 L216.03821,540.153933 Z M214.741283,617.547452 C213.326543,617.726104 212.097358,618.462306 211.274629,619.543051 L144.240875,580.848255 L144.240875,503.453754 C145.655615,503.275103 146.8848,502.5389 147.707529,501.458155 L179.167584,519.617814 L214.741283,540.153933 L214.741283,617.547452 Z M214.741283,705.181055 L147.707529,743.875852 C146.8848,742.796088 145.655615,742.058904 144.240875,741.880252 L144.240875,664.48477 L179.815556,643.949632 L211.274629,625.790955 C212.097358,626.871701 213.326543,627.607903 214.741283,627.786555 L214.741283,705.181055 Z M143.592903,663.363779 L76.5768205,624.678799 C76.8379731,624.060389 76.9822943,623.380138 76.9822943,622.666513 C76.9822943,621.953869 76.8379731,621.274599 76.5768205,620.656189 L143.592903,581.971209 L143.592903,581.971209 L143.592903,581.971209 L210.608985,620.656189 C210.347832,621.274599 210.203511,621.953869 210.203511,622.666513 C210.203511,623.380138 210.347832,624.060389 210.608985,624.678799 L143.592903,663.363779 Z M142.943948,741.880252 C141.53019,742.058904 140.301005,742.796088 139.478276,743.875852 L72.4445221,705.181055 L72.4445221,627.786555 C73.8592624,627.607903 75.0884469,626.871701 75.9111759,625.790955 L142.943948,664.48477 L142.943948,741.880252 Z M72.4445221,540.153933 L139.478276,501.457174 C140.301005,502.537919 141.53019,503.275103 142.943948,503.453754 L142.943948,580.848255 L75.9111759,619.543051 C75.0894287,618.462306 73.8592624,617.726104 72.4445221,617.547452 L72.4445221,540.153933 Z M71.1485768,617.547452 C69.7338364,617.726104 68.5036702,618.462306 67.681923,619.543051 L0.64816902,580.848255 L0.64816902,503.453754 C2.06290934,503.275103 3.29209385,502.5389 4.11482278,501.458155 L35.5738957,519.617814 L71.1485768,540.153933 L71.1485768,617.547452 Z M71.1485768,705.181055 L4.11482278,743.875852 C3.29209385,742.796088 2.06290934,742.058904 0.64816902,741.880252 L0.64816902,664.48477 L36.2218683,643.949632 L67.681923,625.790955 C68.5036702,626.871701 69.7338364,627.607903 71.1485768,627.786555 L71.1485768,705.181055 Z M856.777144,500.345017 L789.761062,539.030979 L722.74498,500.345017 C723.006133,499.726607 723.150454,499.047338 723.150454,498.333712 L717.964709,498.333712 L712.778964,498.333712 C712.778964,499.047338 712.923285,499.726607 713.184438,500.345017 L646.168356,539.030979 L579.152274,500.345017 C579.412445,499.726607 579.557748,499.047338 579.557748,498.333712 L574.372003,498.333712 L569.185276,498.333712 C569.185276,499.047338 569.330579,499.726607 569.59075,500.345017 L502.57565,539.030979 L435.559568,500.345017 C435.819738,499.726607 435.965041,499.047338 435.965041,498.333712 L430.779297,498.333712 L425.593552,498.333712 C425.593552,499.047338 425.737873,499.726607 425.998044,500.345017 L358.981962,539.030979 L291.966862,500.345017 C292.227032,499.726607 292.371354,499.047338 292.371354,498.333712 L287.185609,498.333712 L281.999864,498.333712 C281.999864,499.047338 282.145167,499.726607 282.405338,500.345017 L215.389256,539.030979 L148.373174,500.345017 C148.634326,499.726607 148.778647,499.047338 148.778647,498.333712 L143.592903,498.333712 L138.407158,498.333712 C138.407158,499.047338 138.551479,499.726607 138.812631,500.345017 L71.7965494,539.030979 L4.78046743,500.345017 C5.04162005,499.726607 5.18594123,499.047338 5.18594123,498.333712 L0.000196355053,498.333712 L0.000196355053,503.51854 L0.000196355053,581.222246 L0.000196355053,581.971209 L0.000196355053,581.971209 L67.0162784,620.656189 C66.7551257,621.274599 66.6108046,621.953869 66.6108046,622.666513 C66.6108046,623.380138 66.7551257,624.060389 67.0162784,624.678799 L0.000196355053,663.363779 L0.000196355053,664.110779 L0.000196355053,664.858761 L0.000196355053,741.815467 L0.000196355053,747.000294 L5.18594123,747.000294 C5.18594123,746.286669 5.04162005,745.6074 4.78046743,744.98899 L71.7965494,706.304991 L138.812631,744.98899 C138.551479,745.6074 138.407158,746.286669 138.407158,747.000294 L143.592903,747.000294 L148.778647,747.000294 C148.778647,746.286669 148.634326,745.6074 148.373174,744.98899 L215.389256,706.304991 L282.405338,744.98899 C282.145167,745.6074 281.999864,746.286669 281.999864,747.000294 L287.185609,747.000294 L292.371354,747.000294 C292.371354,746.286669 292.227032,745.6074 291.966862,744.98899 L358.981962,706.304991 L425.998044,744.98899 C425.737873,745.6074 425.593552,746.286669 425.593552,747.000294 L430.779297,747.000294 L435.965041,747.000294 C435.965041,746.286669 435.819738,745.6074 435.559568,744.98899 L502.57565,706.304991 L569.59075,744.98899 C569.330579,745.6074 569.185276,746.286669 569.185276,747.000294 L574.372003,747.000294 L579.557748,747.000294 C579.557748,746.286669 579.412445,745.6074 579.152274,744.98899 L646.168356,706.304991 L713.184438,744.98899 C712.923285,745.6074 712.778964,746.286669 712.778964,747.000294 L717.964709,747.000294 L723.150454,747.000294 C723.150454,746.286669 723.006133,745.6074 722.74498,744.98899 L789.761062,706.304991 L856.777144,744.98899 C856.515991,745.6074 856.37167,746.286669 856.37167,747.000294 L861.557415,747.000294 L861.557415,741.815467 L861.557415,664.858761 L861.557415,664.110779 L861.557415,663.363779 L794.541333,624.678799 C794.802486,624.060389 794.946807,623.380138 794.946807,622.666513 C794.946807,621.953869 794.802486,621.274599 794.541333,620.656189 L861.557415,581.971209 L861.557415,581.223227 L861.557415,503.51854 L861.557415,498.333712 L856.37167,498.333712 C856.37167,499.047338 856.515991,499.726607 856.777144,500.345017 L856.777144,500.345017 Z" id="Fill-7" fill="#FEFEFE"></path>
                    <path d="M1722.90944,83.3371261 L1655.87569,122.031922 C1655.05394,120.951177 1653.82377,120.214975 1652.40903,120.036323 L1652.40903,42.6418226 L1719.44279,3.94702628 C1720.26552,5.02777135 1721.4947,5.76397372 1722.90944,5.94262549 L1722.90944,83.3371261 Z M1722.90944,166.974623 L1722.90944,244.369124 C1721.4947,244.547775 1720.26552,245.283978 1719.44279,246.364723 L1652.40903,207.670908 L1652.40903,130.275426 C1653.82377,130.096774 1655.05394,129.360572 1655.87569,128.279827 L1722.90944,166.974623 Z M1651.11309,120.036323 C1649.69835,120.214975 1648.46916,120.951177 1647.64644,122.031922 L1580.61366,83.3371261 L1580.61366,5.94262549 C1582.02742,5.76397372 1583.25661,5.02777135 1584.07934,3.94702628 L1615.53939,22.1066846 L1651.11309,42.6418226 L1651.11309,120.036323 Z M1651.11309,207.670908 L1584.07934,246.364723 C1583.25661,245.283978 1582.02742,244.547775 1580.61366,244.369124 L1580.61366,166.974623 L1616.18736,146.439485 L1647.64644,128.279827 C1648.46916,129.360572 1649.69835,130.096774 1651.11309,130.275426 L1651.11309,207.670908 Z M1579.96471,165.851669 L1512.94863,127.16767 C1513.20978,126.548279 1513.3541,125.869009 1513.3541,125.156365 C1513.3541,124.44274 1513.20978,123.76347 1512.94961,123.14506 L1579.96471,84.4600802 L1646.98079,123.14506 C1646.71964,123.76347 1646.57532,124.44274 1646.57532,125.156365 C1646.57532,125.869009 1646.71964,126.548279 1646.98079,127.16767 L1579.96471,165.851669 Z M1579.31674,244.369124 C1577.902,244.547775 1576.67281,245.283978 1575.85008,246.364723 L1508.81633,207.670908 L1508.81633,130.275426 C1510.23107,130.096774 1511.46025,129.360572 1512.28298,128.279827 L1579.31674,166.974623 L1579.31674,244.369124 Z M1508.81633,42.6418226 L1575.85008,3.94702628 C1576.67183,5.02777135 1577.902,5.76397372 1579.31674,5.94262549 L1579.31674,83.3371261 L1512.28298,122.031922 C1511.46025,120.951177 1510.23107,120.214975 1508.81633,120.036323 L1508.81633,42.6418226 Z M1507.52038,120.036323 C1506.10466,120.214975 1504.87548,120.951177 1504.05373,122.031922 L1437.01998,83.3371261 L1437.01998,5.94262549 C1438.43472,5.76397372 1439.6639,5.02777135 1440.48565,3.94702628 L1471.9457,22.1066846 L1507.52038,42.6418226 L1507.52038,120.036323 Z M1507.52038,207.670908 L1440.48565,246.364723 C1439.6639,245.283978 1438.43472,244.547775 1437.01998,244.369124 L1437.01998,166.974623 L1472.59466,146.439485 L1504.05373,128.279827 C1504.87548,129.360572 1506.10466,130.096774 1507.52038,130.275426 L1507.52038,207.670908 Z M1436.372,165.851669 L1369.35592,127.16767 C1369.61609,126.548279 1369.76139,125.869009 1369.76139,125.156365 C1369.76139,124.44274 1369.61609,123.76347 1369.35592,123.14506 L1436.372,84.4600802 L1436.372,84.4600802 L1503.3871,123.14506 C1503.12693,123.76347 1502.98261,124.44274 1502.98261,125.156365 C1502.98261,125.869009 1503.12693,126.548279 1503.38808,127.16767 L1436.372,165.851669 Z M1435.72305,244.369124 C1434.30831,244.547775 1433.08011,245.283978 1432.25738,246.364723 L1365.22362,207.670908 L1365.22362,130.275426 C1366.63836,130.096774 1367.86755,129.360572 1368.69028,128.279827 L1435.72305,166.974623 L1435.72305,244.369124 Z M1365.22362,42.6418226 L1432.25738,3.94702628 C1433.07912,5.02777135 1434.30831,5.76397372 1435.72305,5.94262549 L1435.72305,83.3371261 L1368.69028,122.031922 C1367.86755,120.951177 1366.63836,120.214975 1365.22362,120.036323 L1365.22362,42.6418226 Z M1363.92768,120.036323 C1362.51195,120.214975 1361.28277,120.951177 1360.46004,122.031922 L1293.42727,83.3371261 L1293.42727,5.94262549 C1294.84201,5.76397372 1296.07119,5.02777135 1296.89294,3.94702628 L1328.353,22.1066846 L1363.92768,42.6418226 L1363.92768,120.036323 Z M1363.92768,207.670908 L1296.89392,246.364723 C1296.07119,245.283978 1294.84201,244.547775 1293.42727,244.369124 L1293.42727,166.974623 L1329.00097,146.439485 L1360.46102,128.279827 C1361.28277,129.360572 1362.51294,130.096774 1363.92768,130.275426 L1363.92768,207.670908 Z M1292.7793,165.851669 L1225.76321,127.16767 C1226.02339,126.548279 1226.16869,125.869009 1226.16869,125.156365 C1226.16869,124.44274 1226.02339,123.76347 1225.76321,123.14506 L1292.7793,84.4600802 L1359.79538,123.14506 C1359.53423,123.76347 1359.38892,124.44274 1359.38892,125.156365 C1359.38892,125.869009 1359.53423,126.548279 1359.79538,127.16767 L1292.7793,165.851669 Z M1292.13034,244.369124 C1290.7156,244.547775 1289.48642,245.283978 1288.66369,246.364723 L1221.63092,207.670908 L1221.63092,130.275426 C1223.04566,130.096774 1224.27484,129.360572 1225.09757,128.279827 L1292.13034,166.974623 L1292.13034,244.369124 Z M1221.63092,42.6418226 L1288.66369,3.94702628 C1289.48642,5.02777135 1290.7156,5.76397372 1292.13034,5.94262549 L1292.13034,83.3371261 L1225.09757,122.031922 C1224.27484,120.951177 1223.04566,120.214975 1221.63092,120.036323 L1221.63092,42.6418226 Z M1220.33399,120.036323 C1218.91925,120.214975 1217.69006,120.951177 1216.86734,122.031922 L1149.83456,83.3371261 L1149.83456,5.94262549 C1151.2493,5.76397372 1152.47751,5.02777135 1153.30024,3.94702628 L1184.76029,22.1066846 L1220.33399,42.6418226 L1220.33399,120.036323 Z M1220.33399,207.670908 L1153.30024,246.364723 C1152.47751,245.283978 1151.2493,244.547775 1149.83456,244.369124 L1149.83456,166.974623 L1185.40826,146.439485 L1216.86734,128.279827 C1217.69006,129.360572 1218.91925,130.096774 1220.33399,130.275426 L1220.33399,207.670908 Z M1149.18561,165.851669 L1082.16953,127.16767 C1082.43068,126.548279 1082.575,125.869009 1082.575,125.156365 C1082.575,124.44274 1082.43068,123.76347 1082.17051,123.14506 L1149.18561,84.4600802 L1216.20169,123.14506 C1215.94152,123.76347 1215.79622,124.44274 1215.79622,125.156365 C1215.79622,125.869009 1215.94152,126.548279 1216.20169,127.16767 L1149.18561,165.851669 Z M1148.53764,244.369124 C1147.1229,244.547775 1145.89371,245.283978 1145.07098,246.364723 L1078.03821,207.670908 L1078.03821,130.275426 C1079.45295,130.096774 1080.68213,129.360572 1081.50388,128.279827 L1148.53764,166.974623 L1148.53764,244.369124 Z M1078.03821,42.6418226 L1145.07098,3.94702628 C1145.89371,5.02777135 1147.1229,5.76397372 1148.53764,5.94262549 L1148.53764,83.3371261 L1081.50388,122.031922 C1080.68213,120.951177 1079.45295,120.214975 1078.03821,120.036323 L1078.03821,42.6418226 Z M1076.74128,120.036323 C1075.32654,120.214975 1074.09736,120.951177 1073.27463,122.031922 L1006.24088,83.3371261 L1006.24088,5.94262549 C1007.65562,5.76397372 1008.8848,5.02777135 1009.70753,3.94702628 L1041.16758,22.1066846 L1076.74128,42.6418226 L1076.74128,120.036323 Z M1076.74128,207.670908 L1009.70753,246.364723 C1008.8848,245.283978 1007.65562,244.547775 1006.24088,244.369124 L1006.24088,166.974623 L1041.81556,146.439485 L1073.27463,128.279827 C1074.09736,129.360572 1075.32654,130.096774 1076.74128,130.275426 L1076.74128,207.670908 Z M1005.5929,165.851669 L938.576821,127.16767 C938.837973,126.548279 938.982294,125.869009 938.982294,125.156365 C938.982294,124.44274 938.837973,123.76347 938.576821,123.14506 L1005.5929,84.4600802 L1072.60898,123.14506 C1072.34783,123.76347 1072.20351,124.44274 1072.20351,125.156365 C1072.20351,125.869009 1072.34783,126.548279 1072.60898,127.16767 L1005.5929,165.851669 Z M1004.94395,244.369124 C1003.53019,244.547775 1002.30101,245.283978 1001.47828,246.364723 L934.444522,207.670908 L934.444522,130.275426 C935.859262,130.096774 937.088447,129.360572 937.911176,128.279827 L1004.94395,166.974623 L1004.94395,244.369124 Z M934.444522,42.6418226 L1001.47828,3.94702628 C1002.30101,5.02777135 1003.53019,5.76397372 1004.94395,5.94262549 L1004.94395,83.3371261 L937.911176,122.031922 C937.089429,120.951177 935.859262,120.214975 934.444522,120.036323 L934.444522,42.6418226 Z M933.148577,120.036323 C931.733836,120.214975 930.50367,120.951177 929.681923,122.031922 L862.648169,83.3371261 L862.648169,5.94262549 C864.062909,5.76397372 865.292094,5.02777135 866.114823,3.94702628 L897.573896,22.1066846 L933.148577,42.6418226 L933.148577,120.036323 Z M933.148577,207.670908 L866.114823,246.364723 C865.292094,245.283978 864.062909,244.547775 862.648169,244.369124 L862.648169,166.974623 L898.221868,146.439485 L929.681923,128.279827 C930.50367,129.360572 931.733836,130.096774 933.148577,130.275426 L933.148577,207.670908 Z M1718.37167,0.822583443 C1718.37167,1.53620894 1718.51599,2.21547832 1718.77714,2.8338883 L1651.76106,41.5188686 L1584.74498,2.8338883 C1585.00613,2.21547832 1585.15045,1.53620894 1585.15045,0.822583443 L1579.96471,0.822583443 L1574.77896,0.822583443 C1574.77896,1.53620894 1574.92329,2.21547832 1575.18444,2.8338883 L1508.16836,41.5188686 L1441.15227,2.8338883 C1441.41244,2.21547832 1441.55775,1.53620894 1441.55775,0.822583443 L1436.372,0.822583443 L1431.18528,0.822583443 C1431.18528,1.53620894 1431.33058,2.21547832 1431.59075,2.8338883 L1364.57565,41.5188686 L1297.55957,2.8338883 C1297.81974,2.21547832 1297.96504,1.53620894 1297.96504,0.822583443 L1292.7793,0.822583443 L1287.59355,0.822583443 C1287.59355,1.53620894 1287.73787,2.21547832 1287.99804,2.8338883 L1220.98196,41.5188686 L1153.96686,2.8338883 C1154.22703,2.21547832 1154.37135,1.53620894 1154.37135,0.822583443 L1149.18561,0.822583443 L1143.99986,0.822583443 C1143.99986,1.53620894 1144.14517,2.21547832 1144.40534,2.8338883 L1077.38926,41.5188686 L1010.37317,2.8338883 C1010.63433,2.21547832 1010.77865,1.53620894 1010.77865,0.822583443 L1005.5929,0.822583443 L1000.40716,0.822583443 C1000.40716,1.53620894 1000.55148,2.21547832 1000.81263,2.8338883 L933.796549,41.5188686 L866.780467,2.8338883 C867.04162,2.21547832 867.185941,1.53620894 867.185941,0.822583443 L862.000196,0.822583443 L862.000196,6.0074113 L862.000196,83.711117 L862.000196,84.4600802 L929.016278,123.14506 C928.755126,123.76347 928.610805,124.44274 928.610805,125.156365 C928.610805,125.869009 928.755126,126.548279 929.016278,127.16767 L862.000196,165.851669 L862.000196,166.600632 L862.000196,167.347632 L862.000196,244.303356 L862.000196,249.489166 L867.185941,249.489166 C867.185941,248.77554 867.04162,248.096271 866.780467,247.477861 L933.796549,208.79288 L1000.81263,247.477861 C1000.55148,248.096271 1000.40716,248.77554 1000.40716,249.489166 L1005.5929,249.489166 L1010.77865,249.489166 C1010.77865,248.77554 1010.63433,248.096271 1010.37317,247.477861 L1077.38926,208.79288 L1144.40534,247.477861 C1144.14517,248.096271 1143.99986,248.77554 1143.99986,249.489166 L1149.18561,249.489166 L1154.37135,249.489166 C1154.37135,248.77554 1154.22703,248.096271 1153.96686,247.477861 L1220.98196,208.79288 L1287.99804,247.477861 C1287.73787,248.096271 1287.59355,248.77554 1287.59355,249.489166 L1292.7793,249.489166 L1297.96504,249.489166 C1297.96504,248.77554 1297.81974,248.096271 1297.55957,247.477861 L1364.57565,208.79288 L1431.59075,247.477861 C1431.33058,248.096271 1431.18528,248.77554 1431.18528,249.489166 L1436.372,249.489166 L1441.55775,249.489166 C1441.55775,248.77554 1441.41244,248.096271 1441.15227,247.477861 L1508.16836,208.79288 L1575.18444,247.477861 C1574.92329,248.096271 1574.77896,248.77554 1574.77896,249.489166 L1579.96471,249.489166 L1585.15045,249.489166 C1585.15045,248.77554 1585.00613,248.096271 1584.74498,247.477861 L1651.76106,208.79288 L1718.77714,247.477861 C1718.51599,248.096271 1718.37167,248.77554 1718.37167,249.489166 L1723.55742,249.489166 L1723.55742,244.303356 L1723.55742,167.347632 L1723.55742,166.600632 L1723.55742,165.851669 L1656.54133,127.16767 C1656.80249,126.548279 1656.94681,125.869009 1656.94681,125.156365 C1656.94681,124.44274 1656.80249,123.76347 1656.54133,123.14506 L1723.55742,84.4600802 L1723.55742,83.711117 L1723.55742,6.0074113 L1723.55742,0.822583443 L1718.37167,0.822583443 Z" id="Fill-1" fill="#FEFEFE"></path>
                    <path d="M1722.90944,254.608717 L1722.90944,332.004199 L1655.87569,370.698995 C1655.05394,369.61825 1653.82377,368.881066 1652.40903,368.702415 L1652.40903,291.308896 L1719.44279,252.613118 C1720.26552,253.693863 1721.4947,254.430065 1722.90944,254.608717 L1722.90944,254.608717 Z M1722.90944,415.640714 L1722.90944,493.036196 C1721.4947,493.214848 1720.26552,493.951051 1719.44279,495.031796 L1652.40903,456.336999 L1652.40903,378.942499 C1653.82377,378.762865 1655.05394,378.026663 1655.87569,376.945918 L1722.90944,415.640714 Z M1651.11309,368.702415 C1649.69835,368.881066 1648.46916,369.61825 1647.64644,370.698995 L1580.61366,332.004199 L1580.61366,254.608717 C1582.02742,254.430065 1583.25661,253.693863 1584.07934,252.613118 L1615.53939,270.772776 L1651.11309,291.308896 L1651.11309,368.702415 Z M1651.11309,456.336999 L1584.07934,495.031796 C1583.25661,493.951051 1582.02742,493.214848 1580.61366,493.036196 L1580.61366,415.640714 L1616.18736,395.105576 L1647.64644,376.945918 C1648.46916,378.026663 1649.69835,378.762865 1651.11309,378.942499 L1651.11309,456.336999 Z M1579.96471,414.518742 L1512.94863,375.833761 C1513.20978,375.215352 1513.3541,374.536082 1513.3541,373.822457 C1513.3541,373.108831 1513.20978,372.429562 1512.94961,371.811152 L1579.96471,333.126171 L1646.98079,371.811152 C1646.71964,372.429562 1646.57532,373.108831 1646.57532,373.822457 C1646.57532,374.536082 1646.71964,375.215352 1646.98079,375.833761 L1579.96471,414.518742 Z M1579.31674,493.036196 C1577.902,493.213867 1576.67281,493.951051 1575.85008,495.031796 L1508.81633,456.336999 L1508.81633,378.942499 C1510.23107,378.762865 1511.46025,378.026663 1512.28298,376.945918 L1579.31674,415.640714 L1579.31674,493.036196 Z M1508.81633,291.308896 L1575.85008,252.613118 C1576.67183,253.693863 1577.902,254.430065 1579.31674,254.608717 L1579.31674,332.004199 L1512.28298,370.698995 C1511.46025,369.61825 1510.23107,368.881066 1508.81633,368.702415 L1508.81633,291.308896 Z M1507.52038,368.702415 C1506.10466,368.881066 1504.87548,369.61825 1504.05373,370.698995 L1437.01998,332.004199 L1437.01998,254.608717 C1438.43472,254.430065 1439.6639,253.693863 1440.48565,252.613118 L1471.9457,270.772776 L1507.52038,291.308896 L1507.52038,368.702415 Z M1507.52038,456.336999 L1440.48565,495.031796 C1439.6639,493.951051 1438.43472,493.213867 1437.01998,493.036196 L1437.01998,415.640714 L1472.59466,395.105576 L1504.05373,376.945918 C1504.87548,378.026663 1506.10466,378.762865 1507.52038,378.942499 L1507.52038,456.336999 Z M1436.372,414.518742 L1369.35592,375.833761 C1369.61609,375.215352 1369.76139,374.536082 1369.76139,373.822457 C1369.76139,373.108831 1369.61609,372.429562 1369.35592,371.811152 L1436.372,333.126171 L1436.372,333.126171 L1503.3871,371.811152 C1503.12693,372.429562 1502.98261,373.108831 1502.98261,373.822457 C1502.98261,374.536082 1503.12693,375.215352 1503.38808,375.833761 L1436.372,414.518742 Z M1435.72305,493.036196 C1434.30831,493.213867 1433.08011,493.951051 1432.25738,495.031796 L1365.22362,456.336999 L1365.22362,378.942499 C1366.63836,378.762865 1367.86755,378.026663 1368.69028,376.945918 L1435.72305,415.640714 L1435.72305,493.036196 Z M1365.22362,291.308896 L1432.25738,252.613118 C1433.07912,253.693863 1434.30831,254.430065 1435.72305,254.608717 L1435.72305,332.004199 L1368.69028,370.698995 C1367.86755,369.61825 1366.63836,368.881066 1365.22362,368.702415 L1365.22362,291.308896 Z M1363.92768,368.702415 C1362.51195,368.881066 1361.28277,369.61825 1360.46004,370.698995 L1293.42727,332.004199 L1293.42727,254.608717 C1294.84201,254.430065 1296.07119,253.693863 1296.89294,252.613118 L1328.353,270.772776 L1363.92768,291.308896 L1363.92768,368.702415 Z M1363.92768,456.336999 L1296.89392,495.031796 C1296.07119,493.951051 1294.84201,493.213867 1293.42727,493.036196 L1293.42727,415.640714 L1329.00097,395.105576 L1360.46102,376.945918 C1361.28277,378.026663 1362.51294,378.762865 1363.92768,378.942499 L1363.92768,456.336999 Z M1292.7793,414.518742 L1225.76321,375.833761 C1226.02339,375.215352 1226.16869,374.536082 1226.16869,373.822457 C1226.16869,373.108831 1226.02339,372.429562 1225.76321,371.811152 L1292.7793,333.126171 L1359.79538,371.811152 C1359.53423,372.429562 1359.38892,373.108831 1359.38892,373.822457 C1359.38892,374.536082 1359.53423,375.215352 1359.79538,375.833761 L1292.7793,414.518742 Z M1292.13034,493.036196 C1290.7156,493.213867 1289.48642,493.951051 1288.66369,495.031796 L1221.63092,456.336999 L1221.63092,378.942499 C1223.04566,378.762865 1224.27484,378.026663 1225.09757,376.945918 L1292.13034,415.640714 L1292.13034,493.036196 Z M1221.63092,291.308896 L1288.66369,252.613118 C1289.48642,253.693863 1290.7156,254.430065 1292.13034,254.608717 L1292.13034,332.004199 L1225.09757,370.698995 C1224.27484,369.61825 1223.04566,368.881066 1221.63092,368.702415 L1221.63092,291.308896 Z M1220.33399,368.702415 C1218.91925,368.881066 1217.69006,369.61825 1216.86734,370.698995 L1149.83456,332.004199 L1149.83456,254.608717 C1151.2493,254.430065 1152.47751,253.693863 1153.30024,252.613118 L1184.76029,270.772776 L1220.33399,291.308896 L1220.33399,368.702415 Z M1220.33399,456.336999 L1153.30024,495.031796 C1152.47751,493.951051 1151.2493,493.213867 1149.83456,493.036196 L1149.83456,415.640714 L1185.40826,395.105576 L1216.86734,376.945918 C1217.69006,378.026663 1218.91925,378.762865 1220.33399,378.942499 L1220.33399,456.336999 Z M1149.18561,414.518742 L1082.16953,375.833761 C1082.43068,375.215352 1082.575,374.536082 1082.575,373.822457 C1082.575,373.108831 1082.43068,372.429562 1082.17051,371.811152 L1149.18561,333.126171 L1216.20169,371.811152 C1215.94152,372.429562 1215.79622,373.108831 1215.79622,373.822457 C1215.79622,374.536082 1215.94152,375.215352 1216.20169,375.833761 L1149.18561,414.518742 Z M1148.53764,493.036196 C1147.1229,493.213867 1145.89371,493.951051 1145.07098,495.031796 L1078.03821,456.336999 L1078.03821,378.942499 C1079.45295,378.762865 1080.68213,378.026663 1081.50388,376.945918 L1148.53764,415.640714 L1148.53764,493.036196 Z M1078.03821,291.308896 L1145.07098,252.613118 C1145.89371,253.693863 1147.1229,254.430065 1148.53764,254.608717 L1148.53764,332.004199 L1081.50388,370.698995 C1080.68213,369.61825 1079.45295,368.881066 1078.03821,368.702415 L1078.03821,291.308896 Z M1076.74128,368.702415 C1075.32654,368.881066 1074.09736,369.61825 1073.27463,370.698995 L1006.24088,332.004199 L1006.24088,254.608717 C1007.65562,254.430065 1008.8848,253.693863 1009.70753,252.613118 L1041.16758,270.772776 L1076.74128,291.308896 L1076.74128,368.702415 Z M1076.74128,456.336999 L1009.70753,495.031796 C1008.8848,493.951051 1007.65562,493.213867 1006.24088,493.036196 L1006.24088,415.640714 L1041.81556,395.105576 L1073.27463,376.945918 C1074.09736,378.026663 1075.32654,378.762865 1076.74128,378.942499 L1076.74128,456.336999 Z M1005.5929,414.518742 L938.576821,375.833761 C938.837973,375.215352 938.982294,374.536082 938.982294,373.822457 C938.982294,373.108831 938.837973,372.429562 938.576821,371.811152 L1005.5929,333.126171 L1072.60898,371.811152 C1072.34783,372.429562 1072.20351,373.108831 1072.20351,373.822457 C1072.20351,374.536082 1072.34783,375.215352 1072.60898,375.833761 L1005.5929,414.518742 Z M1004.94395,493.036196 C1003.53019,493.213867 1002.30101,493.951051 1001.47828,495.031796 L934.444522,456.336999 L934.444522,378.942499 C935.859262,378.762865 937.088447,378.026663 937.911176,376.945918 L1004.94395,415.640714 L1004.94395,493.036196 Z M934.444522,291.308896 L1001.47828,252.613118 C1002.30101,253.693863 1003.53019,254.430065 1004.94395,254.608717 L1004.94395,332.004199 L937.911176,370.698995 C937.089429,369.61825 935.859262,368.881066 934.444522,368.702415 L934.444522,291.308896 Z M933.148577,368.702415 C931.733836,368.881066 930.50367,369.61825 929.681923,370.698995 L862.648169,332.004199 L862.648169,254.608717 C864.062909,254.430065 865.292094,253.693863 866.114823,252.613118 L897.573896,270.772776 L933.148577,291.308896 L933.148577,368.702415 Z M933.148577,456.336999 L866.114823,495.031796 C865.292094,493.951051 864.062909,493.213867 862.648169,493.036196 L862.648169,415.640714 L898.221868,395.105576 L929.681923,376.945918 C930.50367,378.026663 931.733836,378.762865 933.148577,378.942499 L933.148577,456.336999 Z M1718.77714,251.49998 L1651.76106,290.185942 L1584.74498,251.49998 C1585.00613,250.88157 1585.15045,250.2023 1585.15045,249.489656 L1579.96471,249.489656 L1574.77896,249.489656 C1574.77896,250.2023 1574.92329,250.88157 1575.18444,251.49998 L1508.16836,290.185942 L1441.15227,251.49998 C1441.41244,250.88157 1441.55775,250.2023 1441.55775,249.489656 L1436.372,249.489656 L1431.18528,249.489656 C1431.18528,250.2023 1431.33058,250.88157 1431.59075,251.49998 L1364.57565,290.185942 L1297.55957,251.49998 C1297.81974,250.88157 1297.96504,250.2023 1297.96504,249.489656 L1292.7793,249.489656 L1287.59355,249.489656 C1287.59355,250.2023 1287.73787,250.88157 1287.99804,251.49998 L1220.98196,290.185942 L1153.96686,251.49998 C1154.22703,250.88157 1154.37135,250.2023 1154.37135,249.489656 L1149.18561,249.489656 L1143.99986,249.489656 C1143.99986,250.2023 1144.14517,250.88157 1144.40534,251.49998 L1077.38926,290.185942 L1010.37317,251.49998 C1010.63433,250.88157 1010.77865,250.2023 1010.77865,249.489656 L1005.5929,249.489656 L1000.40716,249.489656 C1000.40716,250.2023 1000.55148,250.88157 1000.81263,251.49998 L933.796549,290.185942 L866.780467,251.49998 C867.04162,250.88157 867.185941,250.2023 867.185941,249.489656 L862.000196,249.489656 L862.000196,254.674484 L862.000196,332.37819 L862.000196,333.126171 L929.016278,371.811152 C928.755126,372.429562 928.610805,373.108831 928.610805,373.822457 C928.610805,374.536082 928.755126,375.215352 929.016278,375.833761 L862.000196,414.518742 L862.000196,415.266723 L862.000196,416.014705 L862.000196,492.970429 L862.000196,498.155257 L867.185941,498.155257 C867.185941,497.441631 867.04162,496.762362 866.780467,496.143952 L933.796549,457.459953 L1000.81263,496.143952 C1000.55148,496.762362 1000.40716,497.441631 1000.40716,498.155257 L1005.5929,498.155257 L1010.77865,498.155257 C1010.77865,497.441631 1010.63433,496.762362 1010.37317,496.143952 L1077.38926,457.459953 L1144.40534,496.143952 C1144.14517,496.762362 1143.99986,497.441631 1143.99986,498.155257 L1149.18561,498.155257 L1154.37135,498.155257 C1154.37135,497.441631 1154.22703,496.762362 1153.96686,496.143952 L1220.98196,457.459953 L1287.99804,496.143952 C1287.73787,496.762362 1287.59355,497.441631 1287.59355,498.155257 L1292.7793,498.155257 L1297.96504,498.155257 C1297.96504,497.441631 1297.81974,496.762362 1297.55957,496.143952 L1364.57565,457.459953 L1431.59075,496.143952 C1431.33058,496.762362 1431.18528,497.441631 1431.18528,498.155257 L1436.372,498.155257 L1441.55775,498.155257 C1441.55775,497.441631 1441.41244,496.762362 1441.15227,496.143952 L1508.16836,457.459953 L1575.18444,496.143952 C1574.92329,496.762362 1574.77896,497.441631 1574.77896,498.155257 L1579.96471,498.155257 L1585.15045,498.155257 C1585.15045,497.441631 1585.00613,496.762362 1584.74498,496.143952 L1651.76106,457.459953 L1718.77714,496.143952 C1718.51599,496.762362 1718.37167,497.441631 1718.37167,498.155257 L1723.55742,498.155257 L1723.55742,492.970429 L1723.55742,416.014705 L1723.55742,415.266723 L1723.55742,414.518742 L1656.54133,375.833761 C1656.80249,375.215352 1656.94681,374.536082 1656.94681,373.822457 C1656.94681,373.108831 1656.80249,372.429562 1656.54133,371.811152 L1723.55742,333.126171 L1723.55742,332.37819 L1723.55742,254.674484 L1723.55742,249.489656 L1718.37167,249.489656 C1718.37167,250.2023 1718.51599,250.88157 1718.77714,251.49998 L1718.77714,251.49998 Z" id="Fill-4" fill="#FEFEFE"></path>
                    <path d="M1722.90944,503.453754 L1722.90944,580.848255 L1655.87569,619.543051 C1655.05394,618.462306 1653.82377,617.726104 1652.40903,617.547452 L1652.40903,540.153933 L1719.44279,501.457174 C1720.26552,502.537919 1721.4947,503.275103 1722.90944,503.453754 L1722.90944,503.453754 Z M1722.90944,664.48477 L1722.90944,741.880252 C1721.4947,742.058904 1720.26552,742.796088 1719.44279,743.875852 L1652.40903,705.181055 L1652.40903,627.786555 C1653.82377,627.607903 1655.05394,626.871701 1655.87569,625.790955 L1722.90944,664.48477 Z M1651.11309,617.547452 C1649.69835,617.726104 1648.46916,618.462306 1647.64644,619.543051 L1580.61366,580.848255 L1580.61366,503.453754 C1582.02742,503.275103 1583.25661,502.5389 1584.07934,501.458155 L1615.53939,519.617814 L1651.11309,540.153933 L1651.11309,617.547452 Z M1651.11309,705.181055 L1584.07934,743.875852 C1583.25661,742.796088 1582.02742,742.058904 1580.61366,741.880252 L1580.61366,664.48477 L1616.18736,643.949632 L1647.64644,625.790955 C1648.46916,626.871701 1649.69835,627.607903 1651.11309,627.786555 L1651.11309,705.181055 Z M1579.96471,663.363779 L1512.94863,624.678799 C1513.20978,624.060389 1513.3541,623.380138 1513.3541,622.666513 C1513.3541,621.953869 1513.20978,621.274599 1512.94961,620.656189 L1579.96471,581.971209 L1579.96471,581.971209 L1579.96471,581.971209 L1646.98079,620.656189 C1646.71964,621.274599 1646.57532,621.953869 1646.57532,622.666513 C1646.57532,623.380138 1646.71964,624.060389 1646.98079,624.678799 L1579.96471,663.363779 Z M1579.31674,741.880252 C1577.902,742.058904 1576.67281,742.796088 1575.85008,743.875852 L1508.81633,705.181055 L1508.81633,627.786555 C1510.23107,627.607903 1511.46025,626.871701 1512.28298,625.790955 L1579.31674,664.48477 L1579.31674,741.880252 Z M1508.81633,540.153933 L1575.85008,501.457174 C1576.67183,502.537919 1577.902,503.275103 1579.31674,503.453754 L1579.31674,580.848255 L1512.28298,619.543051 C1511.46025,618.462306 1510.23107,617.726104 1508.81633,617.547452 L1508.81633,540.153933 Z M1507.52038,617.547452 C1506.10466,617.726104 1504.87548,618.462306 1504.05373,619.543051 L1437.01998,580.848255 L1437.01998,503.453754 C1438.43472,503.275103 1439.6639,502.5389 1440.48565,501.458155 L1471.9457,519.617814 L1507.52038,540.153933 L1507.52038,617.547452 Z M1507.52038,705.181055 L1440.48565,743.875852 C1439.6639,742.796088 1438.43472,742.058904 1437.01998,741.880252 L1437.01998,664.48477 L1472.59466,643.949632 L1504.05373,625.790955 C1504.87548,626.871701 1506.10466,627.607903 1507.52038,627.786555 L1507.52038,705.181055 Z M1436.372,663.363779 L1369.35592,624.678799 C1369.61609,624.060389 1369.76139,623.380138 1369.76139,622.666513 C1369.76139,621.953869 1369.61609,621.274599 1369.35592,620.656189 L1436.372,581.971209 L1436.372,581.971209 L1436.372,581.971209 L1503.3871,620.656189 C1503.12693,621.274599 1502.98261,621.953869 1502.98261,622.666513 C1502.98261,623.380138 1503.12693,624.060389 1503.38808,624.678799 L1436.372,663.363779 Z M1435.72305,741.880252 C1434.30831,742.058904 1433.08011,742.796088 1432.25738,743.875852 L1365.22362,705.181055 L1365.22362,627.786555 C1366.63836,627.607903 1367.86755,626.871701 1368.69028,625.790955 L1435.72305,664.48477 L1435.72305,741.880252 Z M1365.22362,540.153933 L1432.25738,501.457174 C1433.07912,502.537919 1434.30831,503.275103 1435.72305,503.453754 L1435.72305,580.848255 L1368.69028,619.543051 C1367.86755,618.462306 1366.63836,617.726104 1365.22362,617.547452 L1365.22362,540.153933 Z M1363.92768,617.547452 C1362.51195,617.726104 1361.28277,618.462306 1360.46004,619.543051 L1293.42727,580.848255 L1293.42727,503.453754 C1294.84201,503.275103 1296.07119,502.5389 1296.89294,501.458155 L1328.353,519.617814 L1363.92768,540.153933 L1363.92768,617.547452 Z M1363.92768,705.181055 L1296.89392,743.875852 C1296.07119,742.796088 1294.84201,742.058904 1293.42727,741.880252 L1293.42727,664.48477 L1329.00097,643.949632 L1360.46102,625.790955 C1361.28277,626.871701 1362.51294,627.607903 1363.92768,627.786555 L1363.92768,705.181055 Z M1292.7793,663.363779 L1225.76321,624.678799 C1226.02339,624.060389 1226.16869,623.380138 1226.16869,622.666513 C1226.16869,621.953869 1226.02339,621.274599 1225.76321,620.656189 L1292.7793,581.971209 L1292.7793,581.971209 L1292.7793,581.971209 L1359.79538,620.656189 C1359.53423,621.274599 1359.38892,621.953869 1359.38892,622.666513 C1359.38892,623.380138 1359.53423,624.060389 1359.79538,624.678799 L1292.7793,663.363779 Z M1292.13034,741.880252 C1290.7156,742.058904 1289.48642,742.796088 1288.66369,743.875852 L1221.63092,705.181055 L1221.63092,627.786555 C1223.04566,627.607903 1224.27484,626.871701 1225.09757,625.790955 L1292.13034,664.48477 L1292.13034,741.880252 Z M1221.63092,540.153933 L1288.66369,501.457174 C1289.48642,502.537919 1290.7156,503.275103 1292.13034,503.453754 L1292.13034,580.848255 L1225.09757,619.543051 C1224.27484,618.462306 1223.04566,617.726104 1221.63092,617.547452 L1221.63092,540.153933 Z M1220.33399,617.547452 C1218.91925,617.726104 1217.69006,618.462306 1216.86734,619.543051 L1149.83456,580.848255 L1149.83456,503.453754 C1151.2493,503.275103 1152.47751,502.5389 1153.30024,501.458155 L1184.76029,519.617814 L1220.33399,540.153933 L1220.33399,617.547452 Z M1220.33399,705.181055 L1153.30024,743.875852 C1152.47751,742.796088 1151.2493,742.058904 1149.83456,741.880252 L1149.83456,664.48477 L1185.40826,643.949632 L1216.86734,625.790955 C1217.69006,626.871701 1218.91925,627.607903 1220.33399,627.786555 L1220.33399,705.181055 Z M1149.18561,663.363779 L1082.16953,624.678799 C1082.43068,624.060389 1082.575,623.380138 1082.575,622.666513 C1082.575,621.953869 1082.43068,621.274599 1082.17051,620.656189 L1149.18561,581.971209 L1149.18561,581.971209 L1149.18561,581.971209 L1216.20169,620.656189 C1215.94152,621.274599 1215.79622,621.953869 1215.79622,622.666513 C1215.79622,623.380138 1215.94152,624.060389 1216.20169,624.678799 L1149.18561,663.363779 Z M1148.53764,741.880252 C1147.1229,742.058904 1145.89371,742.796088 1145.07098,743.875852 L1078.03821,705.181055 L1078.03821,627.786555 C1079.45295,627.607903 1080.68213,626.871701 1081.50388,625.790955 L1148.53764,664.48477 L1148.53764,741.880252 Z M1078.03821,540.153933 L1145.07098,501.457174 C1145.89371,502.537919 1147.1229,503.275103 1148.53764,503.453754 L1148.53764,580.848255 L1081.50388,619.543051 C1080.68213,618.462306 1079.45295,617.726104 1078.03821,617.547452 L1078.03821,540.153933 Z M1076.74128,617.547452 C1075.32654,617.726104 1074.09736,618.462306 1073.27463,619.543051 L1006.24088,580.848255 L1006.24088,503.453754 C1007.65562,503.275103 1008.8848,502.5389 1009.70753,501.458155 L1041.16758,519.617814 L1076.74128,540.153933 L1076.74128,617.547452 Z M1076.74128,705.181055 L1009.70753,743.875852 C1008.8848,742.796088 1007.65562,742.058904 1006.24088,741.880252 L1006.24088,664.48477 L1041.81556,643.949632 L1073.27463,625.790955 C1074.09736,626.871701 1075.32654,627.607903 1076.74128,627.786555 L1076.74128,705.181055 Z M1005.5929,663.363779 L938.576821,624.678799 C938.837973,624.060389 938.982294,623.380138 938.982294,622.666513 C938.982294,621.953869 938.837973,621.274599 938.576821,620.656189 L1005.5929,581.971209 L1005.5929,581.971209 L1005.5929,581.971209 L1072.60898,620.656189 C1072.34783,621.274599 1072.20351,621.953869 1072.20351,622.666513 C1072.20351,623.380138 1072.34783,624.060389 1072.60898,624.678799 L1005.5929,663.363779 Z M1004.94395,741.880252 C1003.53019,742.058904 1002.30101,742.796088 1001.47828,743.875852 L934.444522,705.181055 L934.444522,627.786555 C935.859262,627.607903 937.088447,626.871701 937.911176,625.790955 L1004.94395,664.48477 L1004.94395,741.880252 Z M934.444522,540.153933 L1001.47828,501.457174 C1002.30101,502.537919 1003.53019,503.275103 1004.94395,503.453754 L1004.94395,580.848255 L937.911176,619.543051 C937.089429,618.462306 935.859262,617.726104 934.444522,617.547452 L934.444522,540.153933 Z M933.148577,617.547452 C931.733836,617.726104 930.50367,618.462306 929.681923,619.543051 L862.648169,580.848255 L862.648169,503.453754 C864.062909,503.275103 865.292094,502.5389 866.114823,501.458155 L897.573896,519.617814 L933.148577,540.153933 L933.148577,617.547452 Z M933.148577,705.181055 L866.114823,743.875852 C865.292094,742.796088 864.062909,742.058904 862.648169,741.880252 L862.648169,664.48477 L898.221868,643.949632 L929.681923,625.790955 C930.50367,626.871701 931.733836,627.607903 933.148577,627.786555 L933.148577,705.181055 Z M1718.77714,500.345017 L1651.76106,539.030979 L1584.74498,500.345017 C1585.00613,499.726607 1585.15045,499.047338 1585.15045,498.333712 L1579.96471,498.333712 L1574.77896,498.333712 C1574.77896,499.047338 1574.92329,499.726607 1575.18444,500.345017 L1508.16836,539.030979 L1441.15227,500.345017 C1441.41244,499.726607 1441.55775,499.047338 1441.55775,498.333712 L1436.372,498.333712 L1431.18528,498.333712 C1431.18528,499.047338 1431.33058,499.726607 1431.59075,500.345017 L1364.57565,539.030979 L1297.55957,500.345017 C1297.81974,499.726607 1297.96504,499.047338 1297.96504,498.333712 L1292.7793,498.333712 L1287.59355,498.333712 C1287.59355,499.047338 1287.73787,499.726607 1287.99804,500.345017 L1220.98196,539.030979 L1153.96686,500.345017 C1154.22703,499.726607 1154.37135,499.047338 1154.37135,498.333712 L1149.18561,498.333712 L1143.99986,498.333712 C1143.99986,499.047338 1144.14517,499.726607 1144.40534,500.345017 L1077.38926,539.030979 L1010.37317,500.345017 C1010.63433,499.726607 1010.77865,499.047338 1010.77865,498.333712 L1005.5929,498.333712 L1000.40716,498.333712 C1000.40716,499.047338 1000.55148,499.726607 1000.81263,500.345017 L933.796549,539.030979 L866.780467,500.345017 C867.04162,499.726607 867.185941,499.047338 867.185941,498.333712 L862.000196,498.333712 L862.000196,503.51854 L862.000196,581.222246 L862.000196,581.971209 L862.000196,581.971209 L929.016278,620.656189 C928.755126,621.274599 928.610805,621.953869 928.610805,622.666513 C928.610805,623.380138 928.755126,624.060389 929.016278,624.678799 L862.000196,663.363779 L862.000196,664.110779 L862.000196,664.858761 L862.000196,741.815467 L862.000196,747.000294 L867.185941,747.000294 C867.185941,746.286669 867.04162,745.6074 866.780467,744.98899 L933.796549,706.304991 L1000.81263,744.98899 C1000.55148,745.6074 1000.40716,746.286669 1000.40716,747.000294 L1005.5929,747.000294 L1010.77865,747.000294 C1010.77865,746.286669 1010.63433,745.6074 1010.37317,744.98899 L1077.38926,706.304991 L1144.40534,744.98899 C1144.14517,745.6074 1143.99986,746.286669 1143.99986,747.000294 L1149.18561,747.000294 L1154.37135,747.000294 C1154.37135,746.286669 1154.22703,745.6074 1153.96686,744.98899 L1220.98196,706.304991 L1287.99804,744.98899 C1287.73787,745.6074 1287.59355,746.286669 1287.59355,747.000294 L1292.7793,747.000294 L1297.96504,747.000294 C1297.96504,746.286669 1297.81974,745.6074 1297.55957,744.98899 L1364.57565,706.304991 L1431.59075,744.98899 C1431.33058,745.6074 1431.18528,746.286669 1431.18528,747.000294 L1436.372,747.000294 L1441.55775,747.000294 C1441.55775,746.286669 1441.41244,745.6074 1441.15227,744.98899 L1508.16836,706.304991 L1575.18444,744.98899 C1574.92329,745.6074 1574.77896,746.286669 1574.77896,747.000294 L1579.96471,747.000294 L1585.15045,747.000294 C1585.15045,746.286669 1585.00613,745.6074 1584.74498,744.98899 L1651.76106,706.304991 L1718.77714,744.98899 C1718.51599,745.6074 1718.37167,746.286669 1718.37167,747.000294 L1723.55742,747.000294 L1723.55742,741.815467 L1723.55742,664.858761 L1723.55742,664.110779 L1723.55742,663.363779 L1656.54133,624.678799 C1656.80249,624.060389 1656.94681,623.380138 1656.94681,622.666513 C1656.94681,621.953869 1656.80249,621.274599 1656.54133,620.656189 L1723.55742,581.971209 L1723.55742,581.223227 L1723.55742,503.51854 L1723.55742,498.333712 L1718.37167,498.333712 C1718.37167,499.047338 1718.51599,499.726607 1718.77714,500.345017 L1718.77714,500.345017 Z" id="Fill-7" fill="#FEFEFE"></path>
                    <path d="M860.909442,254.608717 L860.909442,332.004199 L793.875688,370.698995 C793.053941,369.61825 791.823775,368.881066 790.409035,368.702415 L790.409035,291.308896 L857.442789,252.613118 C858.265518,253.693863 859.494702,254.430065 860.909442,254.608717 L860.909442,254.608717 Z M860.909442,415.640714 L860.909442,493.036196 C859.494702,493.214848 858.265518,493.951051 857.442789,495.031796 L790.409035,456.336999 L790.409035,378.942499 C791.823775,378.762865 793.053941,378.026663 793.875688,376.945918 L860.909442,415.640714 Z M789.113089,368.702415 C787.698349,368.881066 786.469164,369.61825 785.646436,370.698995 L718.613663,332.004199 L718.613663,254.608717 C720.027422,254.430065 721.256606,253.693863 722.079335,252.613118 L753.53939,270.772776 L789.113089,291.308896 L789.113089,368.702415 Z M789.113089,456.336999 L722.079335,495.031796 C721.256606,493.951051 720.027422,493.214848 718.613663,493.036196 L718.613663,415.640714 L754.187363,395.105576 L785.646436,376.945918 C786.469164,378.026663 787.698349,378.762865 789.113089,378.942499 L789.113089,456.336999 Z M717.964709,414.518742 L650.948627,375.833761 C651.209779,375.215352 651.354101,374.536082 651.354101,373.822457 C651.354101,373.108831 651.209779,372.429562 650.949609,371.811152 L717.964709,333.126171 L784.980791,371.811152 C784.719638,372.429562 784.575317,373.108831 784.575317,373.822457 C784.575317,374.536082 784.719638,375.215352 784.980791,375.833761 L717.964709,414.518742 Z M717.316736,493.036196 C715.901996,493.213867 714.672811,493.951051 713.850082,495.031796 L646.816328,456.336999 L646.816328,378.942499 C648.231069,378.762865 649.460253,378.026663 650.282982,376.945918 L717.316736,415.640714 L717.316736,493.036196 Z M646.816328,291.308896 L713.850082,252.613118 C714.67183,253.693863 715.901996,254.430065 717.316736,254.608717 L717.316736,332.004199 L650.282982,370.698995 C649.460253,369.61825 648.231069,368.881066 646.816328,368.702415 L646.816328,291.308896 Z M645.520383,368.702415 C644.104661,368.881066 642.875477,369.61825 642.053729,370.698995 L575.019975,332.004199 L575.019975,254.608717 C576.434716,254.430065 577.6639,253.693863 578.485647,252.613118 L609.945702,270.772776 L645.520383,291.308896 L645.520383,368.702415 Z M645.520383,456.336999 L578.485647,495.031796 C577.6639,493.951051 576.434716,493.213867 575.019975,493.036196 L575.019975,415.640714 L610.594656,395.105576 L642.053729,376.945918 C642.875477,378.026663 644.104661,378.762865 645.520383,378.942499 L645.520383,456.336999 Z M574.372003,414.518742 L507.355921,375.833761 C507.616092,375.215352 507.761395,374.536082 507.761395,373.822457 C507.761395,373.108831 507.616092,372.429562 507.355921,371.811152 L574.372003,333.126171 L574.372003,333.126171 L641.387103,371.811152 C641.126932,372.429562 640.982611,373.108831 640.982611,373.822457 C640.982611,374.536082 641.126932,375.215352 641.388085,375.833761 L574.372003,414.518742 Z M573.723048,493.036196 C572.308308,493.213867 571.080105,493.951051 570.257376,495.031796 L503.223622,456.336999 L503.223622,378.942499 C504.638363,378.762865 505.867547,378.026663 506.690276,376.945918 L573.723048,415.640714 L573.723048,493.036196 Z M503.223622,291.308896 L570.257376,252.613118 C571.079123,253.693863 572.308308,254.430065 573.723048,254.608717 L573.723048,332.004199 L506.690276,370.698995 C505.867547,369.61825 504.638363,368.881066 503.223622,368.702415 L503.223622,291.308896 Z M501.927677,368.702415 C500.511955,368.881066 499.28277,369.61825 498.460041,370.698995 L431.427269,332.004199 L431.427269,254.608717 C432.84201,254.430065 434.071194,253.693863 434.892941,252.613118 L466.352996,270.772776 L501.927677,291.308896 L501.927677,368.702415 Z M501.927677,456.336999 L434.893923,495.031796 C434.071194,493.951051 432.84201,493.213867 431.427269,493.036196 L431.427269,415.640714 L467.000969,395.105576 L498.461023,376.945918 C499.28277,378.026663 500.512937,378.762865 501.927677,378.942499 L501.927677,456.336999 Z M430.779297,414.518742 L363.763215,375.833761 C364.023385,375.215352 364.168688,374.536082 364.168688,373.822457 C364.168688,373.108831 364.023385,372.429562 363.763215,371.811152 L430.779297,333.126171 L497.795379,371.811152 C497.534226,372.429562 497.388923,373.108831 497.388923,373.822457 C497.388923,374.536082 497.534226,375.215352 497.795379,375.833761 L430.779297,414.518742 Z M430.130342,493.036196 C428.715602,493.213867 427.486417,493.951051 426.663688,495.031796 L359.630916,456.336999 L359.630916,378.942499 C361.045656,378.762865 362.274841,378.026663 363.09757,376.945918 L430.130342,415.640714 L430.130342,493.036196 Z M359.630916,291.308896 L426.663688,252.613118 C427.486417,253.693863 428.715602,254.430065 430.130342,254.608717 L430.130342,332.004199 L363.09757,370.698995 C362.274841,369.61825 361.045656,368.881066 359.630916,368.702415 L359.630916,291.308896 Z M358.333989,368.702415 C356.919249,368.881066 355.690064,369.61825 354.867335,370.698995 L287.834563,332.004199 L287.834563,254.608717 C289.249303,254.430065 290.477506,253.693863 291.300235,252.613118 L322.76029,270.772776 L358.333989,291.308896 L358.333989,368.702415 Z M358.333989,456.336999 L291.300235,495.031796 C290.477506,493.951051 289.249303,493.213867 287.834563,493.036196 L287.834563,415.640714 L323.408262,395.105576 L354.867335,376.945918 C355.690064,378.026663 356.919249,378.762865 358.333989,378.942499 L358.333989,456.336999 Z M287.185609,414.518742 L220.169527,375.833761 C220.430679,375.215352 220.575,374.536082 220.575,373.822457 C220.575,373.108831 220.430679,372.429562 220.170508,371.811152 L287.185609,333.126171 L354.201691,371.811152 C353.94152,372.429562 353.796217,373.108831 353.796217,373.822457 C353.796217,374.536082 353.94152,375.215352 354.201691,375.833761 L287.185609,414.518742 Z M286.537636,493.036196 C285.122896,493.213867 283.893711,493.951051 283.070982,495.031796 L216.03821,456.336999 L216.03821,378.942499 C217.45295,378.762865 218.682135,378.026663 219.503882,376.945918 L286.537636,415.640714 L286.537636,493.036196 Z M216.03821,291.308896 L283.070982,252.613118 C283.893711,253.693863 285.122896,254.430065 286.537636,254.608717 L286.537636,332.004199 L219.503882,370.698995 C218.682135,369.61825 217.45295,368.881066 216.03821,368.702415 L216.03821,291.308896 Z M214.741283,368.702415 C213.326543,368.881066 212.097358,369.61825 211.274629,370.698995 L144.240875,332.004199 L144.240875,254.608717 C145.655615,254.430065 146.8848,253.693863 147.707529,252.613118 L179.167584,270.772776 L214.741283,291.308896 L214.741283,368.702415 Z M214.741283,456.336999 L147.707529,495.031796 C146.8848,493.951051 145.655615,493.213867 144.240875,493.036196 L144.240875,415.640714 L179.815556,395.105576 L211.274629,376.945918 C212.097358,378.026663 213.326543,378.762865 214.741283,378.942499 L214.741283,456.336999 Z M143.592903,414.518742 L76.5768205,375.833761 C76.8379731,375.215352 76.9822943,374.536082 76.9822943,373.822457 C76.9822943,373.108831 76.8379731,372.429562 76.5768205,371.811152 L143.592903,333.126171 L210.608985,371.811152 C210.347832,372.429562 210.203511,373.108831 210.203511,373.822457 C210.203511,374.536082 210.347832,375.215352 210.608985,375.833761 L143.592903,414.518742 Z M142.943948,493.036196 C141.53019,493.213867 140.301005,493.951051 139.478276,495.031796 L72.4445221,456.336999 L72.4445221,378.942499 C73.8592624,378.762865 75.0884469,378.026663 75.9111759,376.945918 L142.943948,415.640714 L142.943948,493.036196 Z M72.4445221,291.308896 L139.478276,252.613118 C140.301005,253.693863 141.53019,254.430065 142.943948,254.608717 L142.943948,332.004199 L75.9111759,370.698995 C75.0894287,369.61825 73.8592624,368.881066 72.4445221,368.702415 L72.4445221,291.308896 Z M71.1485768,368.702415 C69.7338364,368.881066 68.5036702,369.61825 67.681923,370.698995 L0.64816902,332.004199 L0.64816902,254.608717 C2.06290934,254.430065 3.29209385,253.693863 4.11482278,252.613118 L35.5738957,270.772776 L71.1485768,291.308896 L71.1485768,368.702415 Z M71.1485768,456.336999 L4.11482278,495.031796 C3.29209385,493.951051 2.06290934,493.213867 0.64816902,493.036196 L0.64816902,415.640714 L36.2218683,395.105576 L67.681923,376.945918 C68.5036702,378.026663 69.7338364,378.762865 71.1485768,378.942499 L71.1485768,456.336999 Z M856.777144,251.49998 L789.761062,290.185942 L722.74498,251.49998 C723.006133,250.88157 723.150454,250.2023 723.150454,249.489656 L717.964709,249.489656 L712.778964,249.489656 C712.778964,250.2023 712.923285,250.88157 713.184438,251.49998 L646.168356,290.185942 L579.152274,251.49998 C579.412445,250.88157 579.557748,250.2023 579.557748,249.489656 L574.372003,249.489656 L569.185276,249.489656 C569.185276,250.2023 569.330579,250.88157 569.59075,251.49998 L502.57565,290.185942 L435.559568,251.49998 C435.819738,250.88157 435.965041,250.2023 435.965041,249.489656 L430.779297,249.489656 L425.593552,249.489656 C425.593552,250.2023 425.737873,250.88157 425.998044,251.49998 L358.981962,290.185942 L291.966862,251.49998 C292.227032,250.88157 292.371354,250.2023 292.371354,249.489656 L287.185609,249.489656 L281.999864,249.489656 C281.999864,250.2023 282.145167,250.88157 282.405338,251.49998 L215.389256,290.185942 L148.373174,251.49998 C148.634326,250.88157 148.778647,250.2023 148.778647,249.489656 L143.592903,249.489656 L138.407158,249.489656 C138.407158,250.2023 138.551479,250.88157 138.812631,251.49998 L71.7965494,290.185942 L4.78046743,251.49998 C5.04162005,250.88157 5.18594123,250.2023 5.18594123,249.489656 L0.000196355053,249.489656 L0.000196355053,254.674484 L0.000196355053,332.37819 L0.000196355053,333.126171 L67.0162784,371.811152 C66.7551257,372.429562 66.6108046,373.108831 66.6108046,373.822457 C66.6108046,374.536082 66.7551257,375.215352 67.0162784,375.833761 L0.000196355053,414.518742 L0.000196355053,415.266723 L0.000196355053,416.014705 L0.000196355053,492.970429 L0.000196355053,498.155257 L5.18594123,498.155257 C5.18594123,497.441631 5.04162005,496.762362 4.78046743,496.143952 L71.7965494,457.459953 L138.812631,496.143952 C138.551479,496.762362 138.407158,497.441631 138.407158,498.155257 L143.592903,498.155257 L148.778647,498.155257 C148.778647,497.441631 148.634326,496.762362 148.373174,496.143952 L215.389256,457.459953 L282.405338,496.143952 C282.145167,496.762362 281.999864,497.441631 281.999864,498.155257 L287.185609,498.155257 L292.371354,498.155257 C292.371354,497.441631 292.227032,496.762362 291.966862,496.143952 L358.981962,457.459953 L425.998044,496.143952 C425.737873,496.762362 425.593552,497.441631 425.593552,498.155257 L430.779297,498.155257 L435.965041,498.155257 C435.965041,497.441631 435.819738,496.762362 435.559568,496.143952 L502.57565,457.459953 L569.59075,496.143952 C569.330579,496.762362 569.185276,497.441631 569.185276,498.155257 L574.372003,498.155257 L579.557748,498.155257 C579.557748,497.441631 579.412445,496.762362 579.152274,496.143952 L646.168356,457.459953 L713.184438,496.143952 C712.923285,496.762362 712.778964,497.441631 712.778964,498.155257 L717.964709,498.155257 L723.150454,498.155257 C723.150454,497.441631 723.006133,496.762362 722.74498,496.143952 L789.761062,457.459953 L856.777144,496.143952 C856.515991,496.762362 856.37167,497.441631 856.37167,498.155257 L861.557415,498.155257 L861.557415,492.970429 L861.557415,416.014705 L861.557415,415.266723 L861.557415,414.518742 L794.541333,375.833761 C794.802486,375.215352 794.946807,374.536082 794.946807,373.822457 C794.946807,373.108831 794.802486,372.429562 794.541333,371.811152 L861.557415,333.126171 L861.557415,332.37819 L861.557415,254.674484 L861.557415,249.489656 L856.37167,249.489656 C856.37167,250.2023 856.515991,250.88157 856.777144,251.49998 L856.777144,251.49998 Z" id="Fill-4" fill="#FEFEFE"></path>
                </g>
            </g>
        </g>
    </g>
</svg>