<svg width="138" height="120" viewBox="0 0 138 120" fill="none" xmlns="http://www.w3.org/2000/svg">
<g clip-path="url(#clip0_8627_91893)">
<rect width="138" height="120" fill="#598F22"/>
<path fill-rule="evenodd" clip-rule="evenodd" d="M413.689 39.2734L381.477 57.8829C381.082 57.3631 380.491 57.0091 379.811 56.9232V19.7018L412.023 1.09224C412.418 1.612 413.009 1.96607 413.689 2.05199V39.2734ZM413.689 79.4972V116.719C413.009 116.805 412.418 117.159 412.023 117.678L379.811 99.0693V61.8475C380.491 61.7615 381.082 61.4075 381.477 60.8877L413.689 79.4972ZM379.189 56.9232C378.509 57.0091 377.918 57.3631 377.523 57.8829L345.312 39.2734V2.05199C345.991 1.96607 346.582 1.612 346.977 1.09224L362.094 9.82578L379.189 19.7018V56.9232ZM379.189 99.0693L346.977 117.678C346.582 117.159 345.991 116.805 345.312 116.719V79.4972L362.406 69.6213L377.523 60.8877C377.918 61.4075 378.509 61.7615 379.189 61.8475V99.0693ZM345 78.9572L312.797 60.3528C312.923 60.055 312.992 59.7283 312.992 59.3855C312.992 59.0423 312.923 58.7157 312.798 58.4182L345 39.8134L377.203 58.4182C377.077 58.7157 377.008 59.0423 377.008 59.3855C377.008 59.7283 377.077 60.055 377.203 60.3528L345 78.9572ZM344.689 116.719C344.009 116.805 343.418 117.159 343.023 117.678L310.811 99.0693V61.8475C311.491 61.7615 312.082 61.4075 312.477 60.8877L344.689 79.4972V116.719ZM310.811 19.7018L343.023 1.09224C343.418 1.612 344.009 1.96607 344.689 2.05199V39.2734L312.477 57.8829C312.082 57.3631 311.491 57.0091 310.811 56.9232V19.7018ZM310.189 56.9232C309.508 57.0091 308.918 57.3631 308.523 57.8829L276.311 39.2734V2.05199C276.991 1.96607 277.582 1.612 277.977 1.09224L293.094 9.82578L310.189 19.7018V56.9232ZM310.189 99.0693L277.977 117.678C277.582 117.159 276.991 116.805 276.311 116.719V79.4972L293.406 69.6213L308.523 60.8877C308.918 61.4075 309.508 61.7615 310.189 61.8475V99.0693ZM276 78.9572L243.797 60.3528C243.922 60.055 243.992 59.7283 243.992 59.3855C243.992 59.0423 243.922 58.7157 243.797 58.4182L276 39.8134L308.203 58.4182C308.077 58.7157 308.008 59.0423 308.008 59.3855C308.008 59.7283 308.077 60.055 308.203 60.3528L276 78.9572ZM275.688 116.719C275.008 116.805 274.418 117.159 274.023 117.678L241.812 99.0693V61.8475C242.491 61.7615 243.082 61.4075 243.477 60.8877L275.688 79.4972V116.719ZM241.812 19.7018L274.023 1.09224C274.418 1.612 275.008 1.96607 275.688 2.05199V39.2734L243.477 57.8829C243.082 57.3631 242.491 57.0091 241.812 56.9232V19.7018ZM241.189 56.9232C240.508 57.0091 239.918 57.3631 239.522 57.8829L207.312 39.2734V2.05199C207.991 1.96607 208.582 1.612 208.977 1.09224L224.094 9.82578L241.189 19.7018V56.9232ZM241.189 99.0693L208.977 117.678C208.582 117.159 207.991 116.805 207.312 116.719V79.4972L224.406 69.6213L239.523 60.8877C239.918 61.4075 240.509 61.7615 241.189 61.8475V99.0693ZM207 78.9572L174.797 60.3528C174.922 60.055 174.992 59.7283 174.992 59.3855C174.992 59.0423 174.922 58.7157 174.797 58.4182L207 39.8134L239.203 58.4182C239.078 58.7157 239.008 59.0423 239.008 59.3855C239.008 59.7283 239.078 60.055 239.203 60.3528L207 78.9572ZM206.688 116.719C206.009 116.805 205.418 117.159 205.023 117.678L172.812 99.0693V61.8475C173.491 61.7615 174.082 61.4075 174.477 60.8877L206.688 79.4972V116.719ZM172.812 19.7018L205.023 1.09224C205.418 1.612 206.009 1.96607 206.688 2.05199V39.2734L174.477 57.8829C174.082 57.3631 173.491 57.0091 172.812 56.9232V19.7018ZM172.188 56.9232C171.509 57.0091 170.918 57.3631 170.523 57.8829L138.312 39.2734V2.05199C138.991 1.96607 139.582 1.612 139.977 1.09224L155.094 9.82578L172.188 19.7018V56.9232ZM172.188 99.0693L139.977 117.678C139.582 117.159 138.991 116.805 138.312 116.719V79.4972L155.406 69.6213L170.523 60.8877C170.918 61.4075 171.509 61.7615 172.188 61.8475V99.0693ZM138 78.9572L105.797 60.3528C105.922 60.055 105.992 59.7283 105.992 59.3855C105.992 59.0423 105.922 58.7157 105.797 58.4182L138 39.8134L170.203 58.4182C170.078 58.7157 170.008 59.0423 170.008 59.3855C170.008 59.7283 170.078 60.055 170.203 60.3528L138 78.9572ZM137.688 116.719C137.009 116.805 136.418 117.159 136.023 117.678L103.812 99.0693V61.8475C104.492 61.7615 105.082 61.4075 105.477 60.8877L137.688 79.4972V116.719ZM103.812 19.7018L136.023 1.09224C136.418 1.612 137.009 1.96607 137.688 2.05199V39.2734L105.477 57.8829C105.082 57.3631 104.492 57.0091 103.812 56.9232V19.7018ZM103.188 56.9232C102.509 57.0091 101.918 57.3631 101.523 57.8829L69.3113 39.2734V2.05199C69.9911 1.96607 70.5817 1.612 70.9771 1.09224L86.0944 9.82578L103.188 19.7018V56.9232ZM103.188 99.0693L70.9771 117.678C70.5817 117.159 69.9911 116.805 69.3113 116.719V79.4972L86.4058 69.6213L101.523 60.8877C101.918 61.4075 102.509 61.7615 103.188 61.8475V99.0693ZM68.9999 78.9572L36.797 60.3528C36.9225 60.055 36.9918 59.7283 36.9918 59.3855C36.9918 59.0423 36.9225 58.7157 36.797 58.4182L68.9999 39.8134L101.203 58.4182C101.077 58.7157 101.008 59.0423 101.008 59.3855C101.008 59.7283 101.077 60.055 101.203 60.3528L68.9999 78.9572ZM68.6881 116.719C68.0087 116.805 67.4181 117.159 67.0227 117.678L34.8113 99.0693V61.8475C35.4911 61.7615 36.0818 61.4075 36.4771 60.8877L68.6881 79.4972V116.719ZM34.8113 19.7018L67.0227 1.09224C67.4181 1.612 68.0087 1.96607 68.6881 2.05199V39.2734L36.4771 57.8829C36.0823 57.3631 35.4911 57.0091 34.8113 56.9232V19.7018ZM34.1886 56.9232C33.5088 57.0091 32.9176 57.3631 32.5228 57.8829L0.311367 39.2734V2.05199C0.991185 1.96607 1.58184 1.612 1.97718 1.09224L17.0941 9.82578L34.1886 19.7018V56.9232ZM34.1886 99.0693L1.97718 117.678C1.58184 117.159 0.991185 116.805 0.311367 116.719V79.4972L17.4054 69.6213L32.5228 60.8877C32.9176 61.4075 33.5088 61.7615 34.1886 61.8475V99.0693ZM411.508 -0.4104C411.508 -0.0671959 411.577 0.259486 411.703 0.556898L379.5 19.1617L347.297 0.556898C347.423 0.259486 347.492 -0.0671959 347.492 -0.4104H345H342.508C342.508 -0.0671959 342.577 0.259486 342.703 0.556898L310.5 19.1617L278.297 0.556898C278.422 0.259486 278.492 -0.0671959 278.492 -0.4104H276H273.508C273.508 -0.0671959 273.578 0.259486 273.703 0.556898L241.5 19.1617L209.297 0.556898C209.422 0.259486 209.492 -0.0671959 209.492 -0.4104H207H204.508C204.508 -0.0671959 204.578 0.259486 204.703 0.556898L172.5 19.1617L140.297 0.556898C140.422 0.259486 140.492 -0.0671959 140.492 -0.4104H138H135.508C135.508 -0.0671959 135.578 0.259486 135.703 0.556898L103.5 19.1617L71.2969 0.556898C71.4224 0.259486 71.4918 -0.0671959 71.4918 -0.4104H68.9999H66.508C66.508 -0.0671959 66.5774 0.259486 66.7029 0.556898L34.4999 19.1617L2.29704 0.556898C2.42253 0.259486 2.49188 -0.0671959 2.49188 -0.4104H0V2.08314V39.4533V39.8134L32.2029 58.4182C32.0774 58.7157 32.0081 59.0423 32.0081 59.3855C32.0081 59.7283 32.0774 60.055 32.2029 60.3528L0 78.9572V79.3174V79.6766V116.687V119.181H2.49188C2.49188 118.838 2.42253 118.511 2.29704 118.214L34.4999 99.6089L66.7029 118.214C66.5774 118.511 66.508 118.838 66.508 119.181H68.9999H71.4918C71.4918 118.838 71.4224 118.511 71.2969 118.214L103.5 99.6089L135.703 118.214C135.578 118.511 135.508 118.838 135.508 119.181H138H140.492C140.492 118.838 140.422 118.511 140.297 118.214L172.5 99.6089L204.703 118.214C204.578 118.511 204.508 118.838 204.508 119.181H207H209.492C209.492 118.838 209.422 118.511 209.297 118.214L241.5 99.6089L273.703 118.214C273.578 118.511 273.508 118.838 273.508 119.181H276H278.492C278.492 118.838 278.422 118.511 278.297 118.214L310.5 99.6089L342.703 118.214C342.577 118.511 342.508 118.838 342.508 119.181H345H347.492C347.492 118.838 347.423 118.511 347.297 118.214L379.5 99.6089L411.703 118.214C411.577 118.511 411.508 118.838 411.508 119.181H414V116.687V79.6766V79.3174V78.9572L381.797 60.3528C381.922 60.055 381.992 59.7283 381.992 59.3855C381.992 59.0423 381.922 58.7157 381.797 58.4182L414 39.8134V39.4533V2.08314V-0.4104H411.508Z" fill="#FEFEFE"/>
<mask id="mask0_8627_91893" style="mask-type:alpha" maskUnits="userSpaceOnUse" x="0" y="119" width="414" height="120">
<path d="M414 238.772V119.181H0V238.772H414Z" fill="white"/>
</mask>
<g mask="url(#mask0_8627_91893)">
<path fill-rule="evenodd" clip-rule="evenodd" d="M413.689 121.643V158.865L381.477 177.475C381.082 176.955 380.491 176.6 379.811 176.514V139.293L412.023 120.683C412.418 121.203 413.009 121.557 413.689 121.643ZM413.689 199.088V236.31C413.009 236.396 412.418 236.75 412.023 237.27L379.811 218.661V181.439C380.491 181.353 381.082 180.999 381.477 180.479L413.689 199.088ZM379.189 176.514C378.509 176.6 377.918 176.955 377.523 177.475L345.312 158.865V121.643C345.991 121.557 346.582 121.203 346.977 120.683L362.094 129.417L379.189 139.293V176.514ZM379.189 218.661L346.977 237.27C346.582 236.75 345.991 236.396 345.312 236.31V199.088L362.406 189.212L377.523 180.479C377.918 180.999 378.509 181.353 379.189 181.439V218.661ZM345 198.549L312.797 179.944C312.923 179.647 312.992 179.32 312.992 178.977C312.992 178.634 312.923 178.307 312.798 178.009L345 159.405L377.203 178.009C377.077 178.307 377.008 178.634 377.008 178.977C377.008 179.32 377.077 179.647 377.203 179.944L345 198.549ZM344.689 236.31C344.009 236.396 343.418 236.75 343.023 237.27L310.811 218.661V181.439C311.491 181.353 312.082 180.999 312.477 180.479L344.689 199.088V236.31ZM310.811 139.293L343.023 120.683C343.418 121.203 344.009 121.557 344.689 121.643V158.865L312.477 177.475C312.082 176.955 311.491 176.6 310.811 176.514V139.293ZM310.189 176.514C309.508 176.6 308.918 176.955 308.523 177.475L276.311 158.865V121.643C276.991 121.557 277.582 121.203 277.977 120.683L293.094 129.417L310.189 139.293V176.514ZM310.189 218.661L277.977 237.27C277.582 236.75 276.991 236.396 276.311 236.31V199.088L293.406 189.212L308.523 180.479C308.918 180.999 309.508 181.353 310.189 181.439V218.661ZM276 198.549L243.797 179.944C243.922 179.647 243.992 179.32 243.992 178.977C243.992 178.634 243.922 178.307 243.797 178.009L276 159.405L308.203 178.009C308.077 178.307 308.008 178.634 308.008 178.977C308.008 179.32 308.077 179.647 308.203 179.944L276 198.549ZM275.688 236.31C275.008 236.396 274.418 236.75 274.023 237.27L241.812 218.661V181.439C242.491 181.353 243.082 180.999 243.477 180.479L275.688 199.088V236.31ZM241.812 139.293L274.023 120.683C274.418 121.203 275.008 121.557 275.688 121.643V158.865L243.477 177.475C243.082 176.955 242.491 176.6 241.812 176.514V139.293ZM241.189 176.514C240.508 176.6 239.918 176.955 239.522 177.475L207.312 158.865V121.643C207.991 121.557 208.582 121.203 208.977 120.683L224.094 129.417L241.189 139.293V176.514ZM241.189 218.661L208.977 237.27C208.582 236.75 207.991 236.396 207.312 236.31V199.088L224.406 189.212L239.523 180.479C239.918 180.999 240.509 181.353 241.189 181.439V218.661ZM207 198.549L174.797 179.944C174.922 179.647 174.992 179.32 174.992 178.977C174.992 178.634 174.922 178.307 174.797 178.009L207 159.405L239.203 178.009C239.078 178.307 239.008 178.634 239.008 178.977C239.008 179.32 239.078 179.647 239.203 179.944L207 198.549ZM206.688 236.31C206.009 236.396 205.418 236.75 205.023 237.27L172.812 218.661V181.439C173.491 181.353 174.082 180.999 174.477 180.479L206.688 199.088V236.31ZM172.812 139.293L205.023 120.683C205.418 121.203 206.009 121.557 206.688 121.643V158.865L174.477 177.475C174.082 176.955 173.491 176.6 172.812 176.514V139.293ZM172.188 176.514C171.509 176.6 170.918 176.955 170.523 177.475L138.312 158.865V121.643C138.991 121.557 139.582 121.203 139.977 120.683L155.094 129.417L172.188 139.293V176.514ZM172.188 218.661L139.977 237.27C139.582 236.75 138.991 236.396 138.312 236.31V199.088L155.406 189.212L170.523 180.479C170.918 180.999 171.509 181.353 172.188 181.439V218.661ZM138 198.549L105.797 179.944C105.922 179.647 105.992 179.32 105.992 178.977C105.992 178.634 105.922 178.307 105.797 178.009L138 159.405L170.203 178.009C170.078 178.307 170.008 178.634 170.008 178.977C170.008 179.32 170.078 179.647 170.203 179.944L138 198.549ZM137.688 236.31C137.009 236.396 136.418 236.75 136.023 237.27L103.812 218.661V181.439C104.492 181.353 105.082 180.999 105.477 180.479L137.688 199.088V236.31ZM103.812 139.293L136.023 120.683C136.418 121.203 137.009 121.557 137.688 121.643V158.865L105.477 177.475C105.082 176.955 104.492 176.6 103.812 176.514V139.293ZM103.188 176.514C102.509 176.6 101.918 176.955 101.523 177.475L69.3113 158.865V121.643C69.9911 121.557 70.5817 121.203 70.9771 120.683L86.0944 129.417L103.188 139.293V176.514ZM103.188 218.661L70.9771 237.27C70.5817 236.75 69.9911 236.396 69.3113 236.31V199.088L86.4058 189.212L101.523 180.479C101.918 180.999 102.509 181.353 103.188 181.439V218.661ZM68.9999 198.549L36.797 179.944C36.9225 179.647 36.9918 179.32 36.9918 178.977C36.9918 178.634 36.9225 178.307 36.797 178.009L68.9999 159.405L101.203 178.009C101.077 178.307 101.008 178.634 101.008 178.977C101.008 179.32 101.077 179.647 101.203 179.944L68.9999 198.549ZM68.6881 236.31C68.0087 236.396 67.4181 236.75 67.0227 237.27L34.8113 218.661V181.439C35.4911 181.353 36.0818 180.999 36.4771 180.479L68.6881 199.088V236.31ZM34.8113 139.293L67.0227 120.683C67.4181 121.203 68.0087 121.557 68.6881 121.643V158.865L36.4771 177.475C36.0823 176.955 35.4911 176.6 34.8113 176.514V139.293ZM34.1886 176.514C33.5088 176.6 32.9176 176.955 32.5228 177.475L0.311367 158.865V121.643C0.991185 121.557 1.58184 121.203 1.97718 120.683L17.0941 129.417L34.1886 139.293V176.514ZM34.1886 218.661L1.97718 237.27C1.58184 236.75 0.991185 236.396 0.311367 236.31V199.088L17.4054 189.212L32.5228 180.479C32.9176 180.999 33.5088 181.353 34.1886 181.439V218.661ZM411.703 120.148L379.5 138.753L347.297 120.148C347.423 119.851 347.492 119.524 347.492 119.181H345H342.508C342.508 119.524 342.577 119.851 342.703 120.148L310.5 138.753L278.297 120.148C278.422 119.851 278.492 119.524 278.492 119.181H276H273.508C273.508 119.524 273.578 119.851 273.703 120.148L241.5 138.753L209.297 120.148C209.422 119.851 209.492 119.524 209.492 119.181H207H204.508C204.508 119.524 204.578 119.851 204.703 120.148L172.5 138.753L140.297 120.148C140.422 119.851 140.492 119.524 140.492 119.181H138H135.508C135.508 119.524 135.578 119.851 135.703 120.148L103.5 138.753L71.2969 120.148C71.4224 119.851 71.4918 119.524 71.4918 119.181H68.9999H66.508C66.508 119.524 66.5774 119.851 66.7029 120.148L34.4999 138.753L2.29704 120.148C2.42253 119.851 2.49188 119.524 2.49188 119.181H0V121.675V159.045V159.405L32.2029 178.009C32.0774 178.307 32.0081 178.634 32.0081 178.977C32.0081 179.32 32.0774 179.647 32.2029 179.944L0 198.549V198.909V199.268V236.279V238.772H2.49188C2.49188 238.429 2.42253 238.102 2.29704 237.805L34.4999 219.201L66.7029 237.805C66.5774 238.102 66.508 238.429 66.508 238.772H68.9999H71.4918C71.4918 238.429 71.4224 238.102 71.2969 237.805L103.5 219.201L135.703 237.805C135.578 238.102 135.508 238.429 135.508 238.772H138H140.492C140.492 238.429 140.422 238.102 140.297 237.805L172.5 219.201L204.703 237.805C204.578 238.102 204.508 238.429 204.508 238.772H207H209.492C209.492 238.429 209.422 238.102 209.297 237.805L241.5 219.201L273.703 237.805C273.578 238.102 273.508 238.429 273.508 238.772H276H278.492C278.492 238.429 278.422 238.102 278.297 237.805L310.5 219.201L342.703 237.805C342.577 238.102 342.508 238.429 342.508 238.772H345H347.492C347.492 238.429 347.423 238.102 347.297 237.805L379.5 219.201L411.703 237.805C411.577 238.102 411.508 238.429 411.508 238.772H414V236.279V199.268V198.909V198.549L381.797 179.944C381.922 179.647 381.992 179.32 381.992 178.977C381.992 178.634 381.922 178.307 381.797 178.009L414 159.405V159.045V121.675V119.181H411.508C411.508 119.524 411.577 119.851 411.703 120.148Z" fill="#FEFEFE"/>
</g>
</g>
<defs>
<clipPath id="clip0_8627_91893">
<rect width="138" height="120" fill="white"/>
</clipPath>
</defs>
</svg>
