<svg width="276" height="239" viewBox="0 0 276 239" fill="none" xmlns="http://www.w3.org/2000/svg">
<g clip-path="url(#clip0_8784_91604)">
<g opacity="0.3">
<path fill-rule="evenodd" clip-rule="evenodd" d="M827.377 78.9572L762.954 116.176C762.165 115.137 760.982 114.429 759.623 114.257V39.8139L824.046 2.59488C824.836 3.63441 826.018 4.34254 827.377 4.51437V78.9572ZM827.377 159.405V233.848C826.018 234.02 824.836 234.728 824.046 235.767L759.623 198.549V124.105C760.982 123.934 762.165 123.225 762.954 122.186L827.377 159.405ZM758.377 114.257C757.018 114.429 755.836 115.137 755.046 116.176L690.624 78.9572V4.51437C691.982 4.34254 693.164 3.63441 693.955 2.59488L724.189 20.062L758.377 39.8139V114.257ZM758.377 198.549L693.955 235.767C693.164 234.728 691.982 234.02 690.624 233.848V159.405L724.812 139.653L755.046 122.186C755.836 123.225 757.018 123.934 758.377 124.105V198.549ZM690 158.325L625.594 121.116C625.845 120.52 625.984 119.867 625.984 119.182C625.984 118.495 625.845 117.842 625.595 117.247L690 80.0373L754.406 117.247C754.155 117.842 754.016 118.495 754.016 119.182C754.016 119.867 754.155 120.52 754.406 121.116L690 158.325ZM689.377 233.848C688.018 234.02 686.836 234.728 686.046 235.767L621.623 198.549V124.105C622.983 123.934 624.164 123.225 624.955 122.186L689.377 159.405V233.848ZM621.623 39.8139L686.046 2.59488C686.836 3.63441 688.018 4.34254 689.377 4.51437V78.9572L624.955 116.176C624.164 115.137 622.983 114.429 621.623 114.257V39.8139ZM620.377 114.257C619.017 114.429 617.836 115.137 617.046 116.176L552.623 78.9572V4.51437C553.983 4.34254 555.164 3.63441 555.954 2.59488L586.188 20.062L620.377 39.8139V114.257ZM620.377 198.549L555.954 235.767C555.164 234.728 553.983 234.02 552.623 233.848V159.405L586.812 139.653L617.046 122.186C617.836 123.225 619.017 123.934 620.377 124.105V198.549ZM552 158.325L487.594 121.116C487.845 120.52 487.984 119.867 487.984 119.182C487.984 118.495 487.845 117.842 487.594 117.247L552 80.0373L616.405 117.247C616.155 117.842 616.016 118.495 616.016 119.182C616.016 119.867 616.155 120.52 616.406 121.116L552 158.325ZM551.377 233.848C550.017 234.02 548.837 234.728 548.046 235.767L483.623 198.549V124.105C484.983 123.934 486.164 123.225 486.955 122.186L551.377 159.405V233.848ZM483.623 39.8139L548.046 2.59488C548.836 3.63441 550.017 4.34254 551.377 4.51437V78.9572L486.955 116.176C486.164 115.137 484.983 114.429 483.623 114.257V39.8139ZM482.378 114.257C481.017 114.429 479.836 115.137 479.045 116.176L414.623 78.9572V4.51437C415.983 4.34254 417.164 3.63441 417.954 2.59488L448.189 20.062L482.378 39.8139V114.257ZM482.378 198.549L417.955 235.767C417.164 234.728 415.983 234.02 414.623 233.848V159.405L448.811 139.653L479.046 122.186C479.836 123.225 481.018 123.934 482.378 124.105V198.549ZM414 158.325L349.595 121.116C349.845 120.52 349.984 119.867 349.984 119.182C349.984 118.495 349.845 117.842 349.595 117.247L414 80.0373L478.406 117.247C478.155 117.842 478.016 118.495 478.016 119.182C478.016 119.867 478.155 120.52 478.406 121.116L414 158.325ZM413.377 233.848C412.017 234.02 410.836 234.728 410.045 235.767L345.623 198.549V124.105C346.983 123.934 348.164 123.225 348.955 122.186L413.377 159.405V233.848ZM345.623 39.8139L410.045 2.59488C410.836 3.63441 412.017 4.34254 413.377 4.51437V78.9572L348.955 116.176C348.164 115.137 346.983 114.429 345.623 114.257V39.8139ZM344.377 114.257C343.017 114.429 341.836 115.137 341.045 116.176L276.623 78.9572V4.51437C277.983 4.34254 279.163 3.63441 279.954 2.59488L310.189 20.062L344.377 39.8139V114.257ZM344.377 198.549L279.954 235.767C279.163 234.728 277.983 234.02 276.623 233.848V159.405L310.811 139.653L341.045 122.186C341.836 123.225 343.017 123.934 344.377 124.105V198.549ZM276 158.325L211.594 121.116C211.845 120.52 211.984 119.867 211.984 119.182C211.984 118.495 211.845 117.842 211.595 117.247L276 80.0373L340.406 117.247C340.155 117.842 340.016 118.495 340.016 119.182C340.016 119.867 340.155 120.52 340.406 121.116L276 158.325ZM275.377 233.848C274.017 234.02 272.836 234.728 272.045 235.767L207.623 198.549V124.105C208.983 123.934 210.164 123.225 210.954 122.186L275.377 159.405V233.848ZM207.623 39.8139L272.045 2.59488C272.836 3.63441 274.017 4.34254 275.377 4.51437V78.9572L210.954 116.176C210.164 115.137 208.983 114.429 207.623 114.257V39.8139ZM206.377 114.257C205.017 114.429 203.836 115.137 203.045 116.176L138.623 78.9572V4.51437C139.982 4.34254 141.164 3.63441 141.954 2.59488L172.189 20.062L206.377 39.8139V114.257ZM206.377 198.549L141.954 235.767C141.164 234.728 139.982 234.02 138.623 233.848V159.405L172.812 139.653L203.045 122.186C203.836 123.225 205.017 123.934 206.377 124.105V198.549ZM138 158.325L73.594 121.116C73.845 120.52 73.9837 119.867 73.9837 119.182C73.9837 118.495 73.845 117.842 73.594 117.247L138 80.0373L202.406 117.247C202.155 117.842 202.016 118.495 202.016 119.182C202.016 119.867 202.155 120.52 202.406 121.116L138 158.325ZM137.376 233.848C136.017 234.02 134.836 234.728 134.045 235.767L69.6226 198.549V124.105C70.9823 123.934 72.1636 123.225 72.9543 122.186L137.376 159.405V233.848ZM69.6226 39.8139L134.045 2.59488C134.836 3.63441 136.017 4.34254 137.376 4.51437V78.9572L72.9543 116.176C72.1645 115.137 70.9823 114.429 69.6226 114.257V39.8139ZM68.3772 114.257C67.0175 114.429 65.8353 115.137 65.0455 116.176L0.622734 78.9572V4.51437C1.98237 4.34254 3.16368 3.63441 3.95436 2.59488L34.1881 20.062L68.3772 39.8139V114.257ZM68.3772 198.549L3.95436 235.767C3.16368 234.728 1.98237 234.02 0.622734 233.848V159.405L34.8109 139.653L65.0455 122.186C65.8353 123.225 67.0175 123.934 68.3772 124.105V198.549ZM823.016 -0.4104C823.016 0.276009 823.155 0.929372 823.406 1.5242L759 38.7338L694.594 1.5242C694.845 0.929372 694.984 0.276009 694.984 -0.4104H690H685.016C685.016 0.276009 685.155 0.929372 685.406 1.5242L621 38.7338L556.594 1.5242C556.844 0.929372 556.984 0.276009 556.984 -0.4104H552H547.016C547.016 0.276009 547.155 0.929372 547.405 1.5242L483 38.7338L418.595 1.5242C418.845 0.929372 418.984 0.276009 418.984 -0.4104H414H409.017C409.017 0.276009 409.155 0.929372 409.405 1.5242L345 38.7338L280.595 1.5242C280.845 0.929372 280.983 0.276009 280.983 -0.4104H276H271.016C271.016 0.276009 271.156 0.929372 271.406 1.5242L207 38.7338L142.594 1.5242C142.845 0.929372 142.984 0.276009 142.984 -0.4104H138H133.016C133.016 0.276009 133.155 0.929372 133.406 1.5242L68.9999 38.7338L4.59408 1.5242C4.84506 0.929372 4.98376 0.276009 4.98376 -0.4104H0V4.57669V79.3169V80.0373L64.4058 117.247C64.1549 117.842 64.0162 118.495 64.0162 119.182C64.0162 119.867 64.1549 120.52 64.4058 121.116L0 158.325V159.045V159.764V233.785V238.773H4.98376C4.98376 238.086 4.84506 237.433 4.59408 236.838L68.9999 199.628L133.406 236.838C133.155 237.433 133.016 238.086 133.016 238.773H138H142.984C142.984 238.086 142.845 237.433 142.594 236.838L207 199.628L271.406 236.838C271.156 237.433 271.016 238.086 271.016 238.773H276H280.983C280.983 238.086 280.845 237.433 280.595 236.838L345 199.628L409.405 236.838C409.155 237.433 409.017 238.086 409.017 238.773H414H418.984C418.984 238.086 418.845 237.433 418.595 236.838L483 199.628L547.405 236.838C547.155 237.433 547.016 238.086 547.016 238.773H552H556.984C556.984 238.086 556.844 237.433 556.594 236.838L621 199.628L685.406 236.838C685.155 237.433 685.016 238.086 685.016 238.773H690H694.984C694.984 238.086 694.845 237.433 694.594 236.838L759 199.628L823.406 236.838C823.155 237.433 823.016 238.086 823.016 238.773H828V233.785V159.764V159.045V158.325L763.594 121.116C763.845 120.52 763.984 119.867 763.984 119.182C763.984 118.495 763.845 117.842 763.594 117.247L828 80.0373V79.3169V4.57669V-0.4104H823.016Z" fill="#FEFEFE"/>
</g>
</g>
<defs>
<clipPath id="clip0_8784_91604">
<rect width="276" height="239" fill="white"/>
</clipPath>
</defs>
</svg>
