<svg width="63" height="39" viewBox="0 0 63 39" fill="none" xmlns="http://www.w3.org/2000/svg">
<path d="M27.8807 28.936V30.1267L24.74 31.9323L15.3613 34.2912V30.5459L27.8807 28.936Z" fill="#C78A0C"/>
<path d="M27.8807 15.7323V28.9374L15.3613 30.5469V22.9304L27.8807 15.7323Z" fill="#598F22"/>
<path d="M27.8812 15.7324L15.3619 22.9301L2.84326 15.7324L15.3619 8.53503L27.8812 15.7324Z" fill="#598F22"/>
<path d="M24.7395 31.9321L15.3608 37.3243V34.2922L24.7395 31.9321Z" fill="#754C24"/>
<path d="M15.3614 34.2919V37.324L2.84277 30.1263V23.576L15.3441 34.2959L15.3614 34.2919Z" fill="#754C24"/>
<path d="M15.3614 30.5466V34.292L15.3441 34.296L2.84277 23.5761V19.3303L15.3441 30.5484L15.3614 30.5466Z" fill="#C78A0C"/>
<path d="M15.3614 22.93V30.5465L15.3441 30.5487L2.84277 19.3302V15.7323L15.3614 22.93Z" fill="#598F22"/>
<path d="M15.6637 37.3244H15.0583V23.1046L2.69141 15.9935L2.99409 15.4716L15.664 22.756L15.6637 37.3244Z" fill="#1D1D1B"/>
<path d="M27.729 15.4714L15.21 22.6702L15.5127 23.1922L28.0317 15.9935L27.729 15.4714Z" fill="#1D1D1B"/>
<path d="M15.3613 37.6722L2.5415 30.3008V15.5593L2.69285 15.4723L15.3628 8.18787L28.1833 15.5586V30.3L15.3613 37.6722ZM3.1454 29.954L15.3613 36.9772L27.578 29.954V15.9076L15.3613 8.88435L3.1454 15.9076V29.954Z" fill="#1D1D1B"/>
<path d="M15.2632 34.6248L2.64502 23.8047L3.04027 23.3478L15.4226 33.9656L24.6657 31.64L24.8127 32.2252L15.412 34.5904L15.2632 34.6248Z" fill="#1D1D1B"/>
<path d="M15.2429 30.8637L15.1415 30.7727L2.64014 19.5545L3.0442 19.1068L15.4423 30.2324L27.8404 28.6376L27.918 29.2352L15.3769 30.8484L15.2429 30.8637Z" fill="#1D1D1B"/>
<path d="M17.9854 12.595H12.355V17.1674H17.9854V12.595Z" fill="white"/>
<path d="M13.0669 13.2764L12.2617 14.8673L13.2928 16.093V18.2381H11.591L9.60742 15.7346L11.591 11.0407C11.4915 7.92416 11.6575 5.20852 11.6575 5.20852C11.6575 5.20852 13.6686 3.97725 14.4312 3.86312C15.3054 3.73254 17.9245 4.40561 17.9245 4.40561L21.0343 7.01297L21.0586 7.03382C21.0736 7.14292 21.0813 7.25292 21.0813 7.36305C21.0725 7.82774 20.9561 8.28413 20.7412 8.69672C20.2289 9.61518 19.52 10.4102 18.6647 11.0253C18.6507 11.0356 18.6434 11.0404 18.6434 11.0404L20.6288 15.7342L18.6434 18.2377H16.9408V16.0927L17.9719 14.8669L17.1671 13.2761" fill="white"/>
<path d="M18.7894 18.5391H16.6376V15.983L17.6114 14.8256L16.8958 13.4118L17.4362 13.1407L18.331 14.9086L17.243 16.2021V17.9359H18.4963L20.28 15.6867L18.2649 10.9218L18.4805 10.785C19.298 10.1972 19.9767 9.43869 20.4692 8.56248C20.6635 8.19128 20.7692 7.78047 20.7781 7.36196C20.7781 7.30343 20.7756 7.24417 20.7704 7.18491L17.7818 4.67922C17.0196 4.48681 15.1227 4.06361 14.4759 4.16018C13.9425 4.23992 12.5808 5.00552 11.9505 5.38265C11.9178 6.0045 11.8087 8.38506 11.8932 11.0301L11.8954 11.096L9.95366 15.6863L11.7374 17.9356H12.9904V16.2017L11.902 14.9083L12.7968 13.1404L13.3371 13.4114L12.6216 14.8252L13.5954 15.9826V18.5387H11.4439L9.25684 15.781L11.2874 10.984C11.193 7.91612 11.3547 5.21695 11.3565 5.18989L11.366 5.03369L11.5001 4.95175C11.7113 4.82263 13.5866 3.68501 14.3873 3.56503C15.2961 3.42896 17.7267 4.04276 18.0011 4.11372L18.0676 4.13091L21.3435 6.87985L21.3589 6.99286C21.3759 7.11565 21.3845 7.23945 21.3846 7.36341C21.3761 7.87428 21.2491 8.37628 21.0136 8.83024C20.5206 9.73378 19.8393 10.5219 19.0153 11.1417L20.978 15.7818L18.7894 18.5391Z" fill="#1D1D1B"/>
<path d="M16.9406 16.8656H13.293V17.4684H16.9406V16.8656Z" fill="#1D1D1B"/>
<path d="M21.0798 7.36266C21.0709 7.82735 20.9545 8.28374 20.7397 8.69634L19.6377 7.3945L21.0563 7.03308C21.0717 7.14228 21.0795 7.2524 21.0798 7.36266Z" fill="#1D1D1B"/>
<path d="M17.4957 6.70426C17.4957 6.70426 17.0972 5.60175 16.4705 5.79855C16.1408 5.88092 15.8432 6.05919 15.6157 6.31065C15.6157 6.31065 16.1366 6.99433 16.5653 7.02725C16.9001 7.0106 17.2231 6.89849 17.4957 6.70426Z" fill="#1D1D1B"/>
<path d="M13.7198 7.09205H12.581C12.5387 7.09205 12.4969 7.08323 12.4583 7.06615C12.4196 7.04907 12.385 7.02412 12.3566 6.9929C12.3282 6.96167 12.3067 6.92489 12.2935 6.88489C12.2803 6.84488 12.2756 6.80255 12.2798 6.76064L12.3746 5.81617C12.3804 5.75823 12.403 5.70322 12.4396 5.65779L12.8187 5.18555C12.8471 5.15024 12.8831 5.12175 12.924 5.10218C12.965 5.08262 13.0098 5.07247 13.0553 5.07251H14.0037V5.67534H13.2007L12.9682 5.96469L12.9157 6.48922H13.7194L13.7198 7.09205Z" fill="#1D1D1B"/>
<path d="M20.7839 8.8689V10.1016C20.7839 10.1179 20.779 10.1338 20.77 10.1473C20.7609 10.1608 20.748 10.1714 20.7329 10.1776C20.7178 10.1838 20.7012 10.1854 20.6851 10.1823C20.6691 10.1791 20.6544 10.1713 20.6428 10.1598L20.1929 9.71169L20.7839 8.8689Z" fill="white"/>
<path d="M20.7013 10.4353C20.6573 10.4352 20.6138 10.4266 20.5732 10.4097C20.5326 10.3929 20.4957 10.3683 20.4647 10.3373L19.8652 9.74027L21.0359 8.07117V10.1017C21.0357 10.1902 21.0003 10.275 20.9375 10.3375C20.8746 10.4 20.7894 10.4352 20.7006 10.4353H20.7013ZM20.5209 9.68285L20.5319 9.69384V9.66711L20.5209 9.68285Z" fill="#1D1D1B"/>
<path d="M20.8226 9.26189L20.3818 8.73952L20.4693 8.56321C20.6634 8.19209 20.769 7.7814 20.7778 7.36304C20.7778 7.2665 20.7712 7.17008 20.758 7.07443L21.3457 6.94568C21.6106 7.81188 21.057 8.83282 21.0335 8.87598L20.8226 9.26189Z" fill="#1D1D1B"/>
<path d="M18.5811 11.4553L18.4096 11.1871C18.1281 10.746 17.9708 10.2377 17.9541 9.71533C17.9374 9.19296 18.062 8.67572 18.3148 8.21769C18.5675 7.75966 18.9392 7.37765 19.391 7.11162C19.8427 6.8456 20.358 6.70532 20.8828 6.70544C20.9389 6.70544 20.9948 6.70703 21.0507 6.7102L21.1535 6.71569L21.3423 6.87774L21.3577 6.99077C21.3748 7.11356 21.3833 7.23737 21.3835 7.36132C21.3749 7.87219 21.2479 8.37417 21.0125 8.82813C20.4803 9.79279 19.7382 10.6267 18.8404 11.2687L18.5811 11.4553ZM20.7777 7.31194C20.3992 7.32918 20.0306 7.43828 19.7041 7.62973C19.3776 7.82117 19.103 8.08917 18.9042 8.41041C18.7054 8.73165 18.5885 9.09639 18.5635 9.47291C18.5386 9.84943 18.6064 10.2263 18.7611 10.5708C19.4613 10.0239 20.0424 9.34088 20.4692 8.5633C20.6635 8.1921 20.7692 7.78128 20.7781 7.36277C20.7785 7.34595 20.7781 7.3273 20.7777 7.31194Z" fill="#1D1D1B"/>
<path d="M37.093 26.9036C37.1102 27.0234 37.0991 27.1457 37.0607 27.2605C37.0222 27.3754 36.9575 27.4797 36.8715 27.5653C36.7855 27.6509 36.6807 27.7154 36.5654 27.7537C36.4501 27.792 36.3274 27.803 36.207 27.7859H33.1582C33.0392 27.8012 32.9183 27.7888 32.8051 27.7495C32.6919 27.7101 32.5894 27.6451 32.5058 27.5595C32.4222 27.4738 32.3598 27.3699 32.3236 27.2561C32.2874 27.1422 32.2783 27.0215 32.2971 26.9036V19.0186C32.279 18.8987 32.2893 18.7762 32.327 18.6609C32.3647 18.5457 32.4289 18.4407 32.5145 18.3545C32.6001 18.2682 32.7047 18.203 32.82 18.1641C32.9353 18.1251 33.0581 18.1135 33.1787 18.1301H36.2085C36.3293 18.1133 36.4524 18.1247 36.5681 18.1636C36.6837 18.2024 36.7886 18.2675 36.8746 18.3537C36.9606 18.4399 37.0252 18.5449 37.0634 18.6603C37.1015 18.7757 37.1122 18.8983 37.0945 19.0186V21.0794H35.6387V19.3705H33.7488V26.5458H35.6387V23.8434H34.5606V22.6158H37.0952L37.093 26.9036Z" fill="black"/>
<path d="M43.14 26.9024C43.1577 27.022 43.1471 27.144 43.1091 27.2588C43.0711 27.3735 43.0068 27.4779 42.9212 27.5635C42.8356 27.6492 42.7312 27.7138 42.6161 27.7522C42.5011 27.7906 42.3786 27.8017 42.2585 27.7847H39.1108C38.9919 27.8001 38.871 27.7876 38.7577 27.7483C38.6445 27.709 38.542 27.6439 38.4584 27.5583C38.3748 27.4727 38.3125 27.3688 38.2763 27.2549C38.24 27.1411 38.231 27.0204 38.2498 26.9024V19.0174C38.2498 18.4251 38.5368 18.1289 39.1108 18.1289H42.2585C42.3791 18.1123 42.5019 18.124 42.6172 18.1629C42.7325 18.2019 42.8371 18.2671 42.9227 18.3533C43.0083 18.4396 43.0725 18.5445 43.1102 18.6598C43.1479 18.7751 43.1582 18.8975 43.14 19.0174V26.9024ZM41.6902 26.5447V19.3693H39.7015V26.5447H41.6902Z" fill="black"/>
<path d="M48.2638 19.4064H45.7545V22.2629H47.8983V23.5153H45.7545V27.7849H44.3047V18.1279H48.2638V19.4064Z" fill="black"/>
<path d="M53.1105 27.7849H49.0879V18.1279H53.0716V19.4053H50.537V22.2248H52.7178V23.4773H50.5392V26.5064H53.1105V27.7849Z" fill="black"/>
<path d="M59.0627 27.7848H57.5512L55.9529 23.2995V22.4296H57.3778V19.3694H55.5499V27.7848H54.1001V18.1279H57.946C58.0662 18.1121 58.1883 18.1244 58.3028 18.1638C58.4173 18.2032 58.521 18.2685 58.6058 18.3547C58.6905 18.441 58.754 18.5456 58.7911 18.6604C58.8282 18.7753 58.8379 18.8972 58.8196 19.0164V22.528C58.8418 22.6863 58.8138 22.8476 58.7393 22.9892C58.6649 23.1309 58.5478 23.2457 58.4045 23.3177C58.0975 23.3983 57.7795 23.4295 57.4626 23.4103L59.0627 27.7848Z" fill="black"/>
</svg>
