<svg width="200" height="239" viewBox="0 0 200 239" fill="none" xmlns="http://www.w3.org/2000/svg">
<path d="M32.6501 43.9673L99.5608 7.30353L167.496 43.9673V118.025L99.5608 154.543L32.6501 118.025V43.9673Z" fill="white" stroke="black"/>
<path fill-rule="evenodd" clip-rule="evenodd" d="M167.933 48.0876L162.456 40.4659L100.249 84.8299L59.8152 61.0871L30.0217 104.71L37.8004 109.983L62.6334 73.6227L100.747 96.0029L167.933 48.0876Z" fill="#36ADA9"/>
<path d="M109.884 44.0929L105.452 42.7116L101.318 55.9162L105.75 57.2975L109.884 44.0929Z" fill="#353535"/>
<path d="M89.3394 44.0931L93.7717 42.7119L97.9059 55.9165L93.4736 57.2977L89.3394 44.0931Z" fill="#353535"/>
<path fill-rule="evenodd" clip-rule="evenodd" d="M126.312 52.1774L123.76 62.6766L117.458 67.6393L142.666 107.341L156.813 117.311L123.111 136.364L123.097 134.471L113.478 111.311L95.2359 90.7987L81.0084 98.0433L69.3997 88.7795L77.6569 68.9627L72.3501 62.0149L70.1221 52.1731C70.0769 51.9732 70.2466 51.7902 70.4498 51.8196L87.2756 54.2539L106.513 54.5847L125.986 51.8194C126.191 51.7903 126.361 51.9767 126.312 52.1774Z" fill="#EE913F"/>
<path fill-rule="evenodd" clip-rule="evenodd" d="M80.8027 53.318L70.4498 51.8202C70.2466 51.7908 70.0769 51.9738 70.1221 52.1736L72.3501 62.0155L77.6569 68.9633L69.3997 88.7801L81.0084 98.0438L95.2359 90.7993L113.478 111.312L118.696 123.874L126.67 114.562L145.783 118.1L150.532 131.487L165.178 123.207L142.666 107.342L137.344 98.9587L131.684 102.219L113.798 91.9165V71.3119L118.185 68.7847L117.458 67.6399L123.76 62.6772L126.312 52.178C126.361 51.9773 126.191 51.7908 125.986 51.8199L106.513 54.5853L98.6886 54.4507V62.1664L89.7457 67.3175L80.8027 62.1664V53.318Z" fill="#F2C94C"/>
<path fill-rule="evenodd" clip-rule="evenodd" d="M125.718 49.9394C127.255 49.7211 128.528 51.1195 128.162 52.6249L125.682 62.8301C125.535 63.4333 125.19 63.97 124.702 64.3546L119.985 68.0693L144.072 106.007L163.545 119.731C165.339 120.995 164.246 123.51 162.459 123.594L125.402 144.544C123.555 145.588 121.264 144.267 121.249 142.149L121.196 134.855L111.842 112.333L94.7896 93.158L82.3789 99.4774C81.4051 99.9732 80.2305 99.854 79.3767 99.1727L68.727 90.6743C67.759 89.9018 67.4201 88.5836 67.8959 87.4417L75.4786 69.2437L70.9522 63.3177C70.7102 63.0008 70.5394 62.6356 70.4514 62.247L68.2656 52.5914C67.9263 51.0925 69.1987 49.7198 70.723 49.9403L87.4293 52.3573L106.395 52.6835L125.718 49.9394ZM123.903 54.0333L106.85 56.4549C106.705 56.4755 106.558 56.4847 106.41 56.4821L87.1221 56.1504L72.4948 54.0342L74.1154 61.193L78.8642 67.4103C79.4654 68.1973 79.6011 69.2441 79.2203 70.1578L71.707 88.1891L81.2378 95.7946L93.7654 89.4156C94.8942 88.8408 96.2697 89.0999 97.1109 90.0457L114.804 109.941C115.01 110.172 115.175 110.435 115.293 110.72L124.79 133.586C124.927 133.916 124.999 134.27 125.002 134.628L125.043 140.382L159.006 121.181L141.71 108.992C141.413 108.783 141.16 108.517 140.965 108.211L116.274 69.3229C115.512 68.1219 115.782 66.5402 116.901 65.6593L122.065 61.5922L123.903 54.0333Z" fill="#353535"/>
<path d="M108.612 32.4109L113.641 33.978L114.795 39.1067L110.92 42.6681L105.892 41.1009L104.737 35.9723L108.612 32.4109Z" fill="#F2C94C"/>
<path fill-rule="evenodd" clip-rule="evenodd" d="M107.872 29.1194L116.128 31.6924L118.023 40.1124L111.661 45.9595L103.405 43.3866L101.51 34.9665L107.872 29.1194ZM113.641 33.978L108.612 32.4108L104.738 35.9723L105.892 41.1009L110.921 42.6681L114.796 39.1067L113.641 33.978Z" fill="#353535"/>
<path d="M90.6113 32.411L85.5823 33.9782L84.4283 39.1068L88.3031 42.6682L93.3321 41.1011L94.4862 35.9724L90.6113 32.411Z" fill="#F2C94C"/>
<path fill-rule="evenodd" clip-rule="evenodd" d="M91.3521 29.1196L83.0956 31.6925L81.2009 40.1126L87.5626 45.9597L95.819 43.3867L97.7138 34.9667L91.3521 29.1196ZM85.5824 33.9782L90.6114 32.411L94.4863 35.9724L93.3322 41.1011L88.3032 42.6682L84.4284 39.1068L85.5824 33.9782Z" fill="#353535"/>
<path d="M102.233 69.0333C102.233 70.8132 100.727 72.2561 98.8681 72.2561C97.0097 72.2561 95.5032 70.8132 95.5032 69.0333C95.5032 67.2534 97.0097 65.8105 98.8681 65.8105C100.727 65.8105 102.233 67.2534 102.233 69.0333Z" fill="#353535"/>
<path fill-rule="evenodd" clip-rule="evenodd" d="M98.8681 71.9639C100.576 71.9639 101.94 70.6407 101.94 69.0333C101.94 67.4259 100.576 66.1026 98.8681 66.1026C97.1601 66.1026 95.796 67.4259 95.796 69.0333C95.796 70.6407 97.1601 71.9639 98.8681 71.9639ZM98.8681 72.2561C100.727 72.2561 102.233 70.8132 102.233 69.0333C102.233 67.2534 100.727 65.8105 98.8681 65.8105C97.0097 65.8105 95.5032 67.2534 95.5032 69.0333C95.5032 70.8132 97.0097 72.2561 98.8681 72.2561Z" fill="#353535"/>
<path fill-rule="evenodd" clip-rule="evenodd" d="M100 12.2453L38.0758 46.292V114.386L100 148.432L161.924 114.386V46.292L100 12.2453ZM173.06 42.9305C173.06 41.2273 172.131 39.6588 170.636 38.8367L102.261 1.24332C100.854 0.46931 99.1464 0.469309 97.7386 1.24332L29.3638 38.8367C27.8686 39.6588 26.9399 41.2273 26.9399 42.9305V117.747C26.9399 119.45 27.8686 121.019 29.3638 121.841L97.7386 159.434C99.1464 160.208 100.854 160.208 102.261 159.434L170.636 121.841C172.131 121.019 173.06 119.45 173.06 117.747V42.9305Z" fill="#353535"/>
<path d="M98.6703 70.9288L99.835 70.5641C100.402 70.3864 100.858 69.9607 101.073 69.4074C101.636 67.9575 100.356 66.4649 98.8331 66.7958L97.6403 67.055C96.9069 67.2143 96.3236 67.768 96.1274 68.4908C95.7124 70.0202 97.155 71.4033 98.6703 70.9288Z" fill="#353535"/>
<path fill-rule="evenodd" clip-rule="evenodd" d="M95.4208 68.2999C94.8547 70.3862 96.8225 72.2729 98.8895 71.6256L100.054 71.2609C100.834 71.0167 101.46 70.4317 101.756 69.6713C102.53 67.6786 100.77 65.6275 98.6774 66.0822L97.4846 66.3414C96.4842 66.5587 95.6884 67.3139 95.4208 68.2999ZM98.4511 70.232C97.4875 70.5337 96.5702 69.6542 96.8341 68.6816C96.9588 68.222 97.3298 67.8699 97.7961 67.7686L98.9889 67.5095C99.9418 67.3024 100.743 68.2363 100.39 69.1435C100.256 69.4897 99.9708 69.7561 99.6158 69.8673L98.4511 70.232Z" fill="#353535"/>
<path d="M26.6667 233.163C26.6667 236.451 25.0244 238.095 21.7399 238.095H4.78898C1.59633 238.095 0 236.451 0 233.163V189.085C0 185.773 1.63078 184.118 4.89233 184.118H21.7399C25.0244 184.118 26.6667 185.773 26.6667 189.085V200.604H18.5702V191.05H8.06202V231.163H18.5702V216.056H12.5754V209.192H26.6667V233.163Z" fill="#353535"/>
<path d="M41.3437 238.095H33.2817V184.118H41.3437V238.095Z" fill="#353535"/>
<path d="M75.5556 238.095H67.149L58.2601 213.021C58.2601 213.021 58.2601 211.4 58.2601 208.158H66.1843V191.05H56.0207V238.095H47.9587V184.118H69.354C72.5926 184.118 74.2119 185.773 74.2119 189.085V208.709C74.2119 210.986 73.4424 212.457 71.9035 213.124C71.0767 213.469 69.331 213.642 66.6667 213.642L75.5556 238.095Z" fill="#353535"/>
<path d="M107.804 238.095H99.8105L98.1912 227.852H88.0965L86.4772 238.095H78.5185V237.957L88.9578 184.049H97.4333L107.804 238.095ZM97.0543 220.919L93.1266 196.569L89.1645 220.919H97.0543Z" fill="#353535"/>
<path d="M138.363 213.504C138.363 216.861 136.721 218.539 133.437 218.539H120.379V238.095H112.317V184.118H133.437C136.721 184.118 138.363 185.773 138.363 189.085V213.504ZM130.233 211.607V191.05H120.379V211.607H130.233Z" fill="#353535"/>
<path d="M171.197 238.095H163.066V213.883H152.145V238.095H144.083V184.118H152.145V206.364H163.066V184.118H171.197V238.095Z" fill="#353535"/>
<path d="M200 238.095H177.64V184.118H199.793V191.257H185.702V207.019H197.829V214.021H185.702V230.956H200V238.095Z" fill="#353535"/>
</svg>
