<svg width="78" height="136" viewBox="0 0 78 136" fill="none" xmlns="http://www.w3.org/2000/svg">
    <path d="M17.2042 125.226C17.2479 125.53 17.2198 125.84 17.1221 126.132C17.0245 126.424 16.86 126.688 16.6417 126.906C16.4233 127.123 16.1572 127.287 15.8643 127.384C15.5714 127.481 15.2597 127.509 14.9541 127.466H7.21098C6.90893 127.505 6.6019 127.473 6.31429 127.373C6.02669 127.273 5.76642 127.108 5.55415 126.891C5.34188 126.673 5.18347 126.41 5.09148 126.121C4.9995 125.832 4.97647 125.525 5.02425 125.226V105.21C4.97827 104.906 5.00423 104.595 5.10005 104.302C5.19588 104.01 5.35893 103.743 5.57627 103.524C5.79361 103.305 6.05926 103.14 6.3521 103.041C6.64494 102.942 6.9569 102.913 7.26323 102.955H14.9578C15.2647 102.912 15.5774 102.941 15.871 103.04C16.1647 103.138 16.4312 103.304 16.6496 103.522C16.8679 103.741 17.0321 104.008 17.129 104.301C17.2259 104.594 17.253 104.905 17.208 105.21V110.442H13.5109V106.103H8.71109V124.318H13.5109V117.458H10.7728V114.341H17.2098L17.2042 125.226Z" fill="black"/>
    <path d="M32.5616 125.225C32.6065 125.529 32.5796 125.839 32.4831 126.13C32.3866 126.421 32.2232 126.686 32.0059 126.903C31.7885 127.121 31.5232 127.285 31.231 127.382C30.9388 127.48 30.6278 127.508 30.3227 127.465H22.3286C22.0266 127.504 21.7196 127.472 21.432 127.372C21.1444 127.273 20.8841 127.108 20.6718 126.89C20.4595 126.673 20.3011 126.409 20.2091 126.12C20.1172 125.831 20.0942 125.525 20.1419 125.225V105.209C20.1419 103.706 20.8708 102.954 22.3286 102.954H30.3227C30.629 102.912 30.941 102.942 31.2338 103.04C31.5266 103.139 31.7923 103.305 32.0096 103.524C32.227 103.743 32.39 104.009 32.4859 104.302C32.5817 104.594 32.6076 104.905 32.5616 105.209V125.225ZM28.8795 124.317V106.103H23.8288V124.317H28.8795Z" fill="black"/>
    <path d="M45.5746 106.197H39.202V113.448H44.6464V116.627H39.202V127.465H35.5198V102.951H45.5746V106.197Z" fill="black"/>
    <path d="M57.8834 127.465H47.6672V102.951H57.7846V106.194H51.3475V113.351H56.8862V116.53H51.3531V124.22H57.8834V127.465Z" fill="black"/>
    <path d="M73 127.465H69.1611L65.102 116.079V113.871H68.7208V106.103H64.0786V127.465H60.3965V102.951H70.164C70.469 102.911 70.7792 102.943 71.07 103.042C71.3608 103.142 71.6243 103.308 71.8395 103.527C72.0547 103.746 72.2158 104.012 72.3101 104.303C72.4043 104.595 72.4291 104.904 72.3824 105.207V114.121C72.439 114.523 72.3677 114.932 72.1787 115.292C71.9896 115.651 71.6922 115.943 71.3282 116.126C70.5485 116.33 69.7411 116.409 68.9363 116.36L73 127.465Z" fill="black"/>
    <path d="M70.8074 73.4529V76.4754L62.831 81.0587L39.0122 87.047V77.5395L70.8074 73.4529Z" fill="#C78A0C"/>
    <path d="M70.8074 39.9361V73.4566L39.0122 77.5423V58.208L70.8074 39.9361Z" fill="#598F22"/>
    <path d="M70.8077 39.9361L39.0125 58.2072L7.21924 39.9361L39.0125 21.6659L70.8077 39.9361Z" fill="#598F22"/>
    <path d="M62.8294 81.0587L39.0105 94.7466V87.0498L62.8294 81.0587Z" fill="#754C24"/>
    <path d="M39.0123 87.0488V94.7457L7.21899 76.4746V59.847L38.9684 87.059L39.0123 87.0488Z" fill="#754C24"/>
    <path d="M39.0123 77.5413V87.0488L38.9684 87.059L7.21899 59.8468V49.0692L38.9684 77.546L39.0123 77.5413Z" fill="#C78A0C"/>
    <path d="M39.0123 58.2071V77.5414L38.9684 77.5469L7.21899 49.0693V39.9361L39.0123 58.2071Z" fill="#598F22"/>
    <path d="M39.7802 94.7465H38.2427V58.65L6.83472 40.599L7.60343 39.2739L39.7811 57.7651L39.7802 94.7465Z" fill="#1D1D1B"/>
    <path d="M70.4225 39.2735L38.6282 57.5473L39.397 58.8725L71.1913 40.5987L70.4225 39.2735Z" fill="#1D1D1B"/>
    <path d="M39.0124 95.6296L6.4541 76.9174V39.4969L6.83847 39.2758L39.0161 20.7847L71.5762 39.495V76.9156L39.0124 95.6296ZM7.9878 76.0372L39.0124 93.8653L70.0388 76.0372V40.3808L39.0124 22.5527L7.9878 40.3808V76.0372Z" fill="#1D1D1B"/>
    <path d="M38.7634 87.8937L6.71729 60.4273L7.72111 59.2675L39.1683 86.2205L62.6429 80.3168L63.0161 81.8025L39.1412 87.8065L38.7634 87.8937Z" fill="#1D1D1B"/>
    <path d="M38.711 78.3465L38.4535 78.1152L6.7041 49.6385L7.7303 48.5019L39.2176 76.7438L70.7049 72.6954L70.9017 74.2125L39.0515 78.3075L38.711 78.3465Z" fill="#1D1D1B"/>
    <path d="M45.6772 31.9718H31.3777V43.5787H45.6772V31.9718Z" fill="white"/>
    <path d="M33.1857 33.7019L31.1408 37.7402L33.7595 40.8518V46.2968H29.4373L24.3997 39.9418L29.4373 28.0266C29.1845 20.1154 29.6062 13.2218 29.6062 13.2218C29.6062 13.2218 34.7138 10.0963 36.6505 9.80659C38.8708 9.4751 45.5224 11.1837 45.5224 11.1837L53.4204 17.8024L53.4819 17.8553C53.5202 18.1322 53.5396 18.4115 53.5398 18.691C53.5172 19.8706 53.2216 21.0291 52.6759 22.0765C51.3748 24.408 49.5743 26.426 47.4022 27.9876C47.3668 28.0136 47.3481 28.0257 47.3481 28.0257L52.3904 39.9408L47.3481 46.2958H43.0241V40.8508L45.6428 37.7393L43.5988 33.701" fill="white"/>
    <path d="M47.7193 47.0609H42.2543V40.5722L44.7274 37.6343L42.9101 34.0454L44.2825 33.3574L46.555 37.8451L43.7917 41.1284V45.5297H46.9748L51.505 39.8201L46.3871 27.7248L46.9347 27.3775C49.0109 25.8853 50.7347 23.9599 51.9854 21.7356C52.4789 20.7934 52.7474 19.7505 52.77 18.6882C52.77 18.5396 52.7635 18.3892 52.7504 18.2387L45.1603 11.8781C43.2245 11.3897 38.407 10.3154 36.7642 10.5606C35.4096 10.763 31.9514 12.7064 30.3505 13.6638C30.2675 15.2423 29.9904 21.2853 30.205 27.9996L30.2106 28.1668L25.2792 39.8191L29.8094 45.5288H32.9915V41.1275L30.2273 37.8441L32.4999 33.3565L33.8722 34.0445L32.0549 37.6333L34.528 40.5713V47.06H29.064L23.5095 40.0597L28.6666 27.8826C28.4269 20.0949 28.8373 13.2432 28.842 13.1744L28.8662 12.7779L29.2067 12.57C29.7432 12.2422 34.5056 9.35437 36.5394 9.0498C38.8474 8.70438 45.0204 10.2625 45.7172 10.4426L45.8861 10.4863L54.2057 17.4643L54.2449 17.7512C54.2881 18.0629 54.3099 18.3772 54.3102 18.6918C54.2885 19.9887 53.966 21.263 53.368 22.4153C52.116 24.7089 50.3856 26.7095 48.293 28.2829L53.2775 40.0615L47.7193 47.0609Z" fill="#1D1D1B"/>
    <path d="M43.024 42.8129H33.7603V44.3431H43.024V42.8129Z" fill="#1D1D1B"/>
    <path d="M53.5361 18.69C53.5135 19.8696 53.2179 21.0281 52.6722 22.0755L49.8735 18.7708L53.4764 17.8533C53.5154 18.1306 53.5353 18.4101 53.5361 18.69Z" fill="#1D1D1B"/>
    <path d="M44.4338 17.0186C44.4338 17.0186 43.4216 14.2199 41.83 14.7195C40.9928 14.9286 40.237 15.3811 39.6592 16.0194C39.6592 16.0194 40.9821 17.7549 42.0708 17.8385C42.9211 17.7962 43.7413 17.5116 44.4338 17.0186Z" fill="#1D1D1B"/>
    <path d="M34.8444 18.003H31.9524C31.845 18.003 31.7387 17.9806 31.6406 17.9373C31.5424 17.8939 31.4544 17.8306 31.3823 17.7513C31.3103 17.6721 31.2557 17.5787 31.2221 17.4771C31.1885 17.3756 31.1767 17.2681 31.1874 17.1617L31.4281 14.7642C31.443 14.6172 31.5003 14.4775 31.5932 14.3622L32.556 13.1634C32.6281 13.0738 32.7195 13.0015 32.8235 12.9518C32.9275 12.9021 33.0414 12.8764 33.1568 12.8765H35.5655V14.4067H33.5262L32.9357 15.1412L32.8023 16.4727H34.8434L34.8444 18.003Z" fill="#1D1D1B"/>
    <path d="M52.7842 22.5137V25.6429C52.7842 25.6842 52.7719 25.7246 52.7488 25.7589C52.7257 25.7932 52.693 25.82 52.6546 25.8358C52.6163 25.8516 52.5741 25.8557 52.5334 25.8477C52.4927 25.8396 52.4553 25.8198 52.426 25.7906L51.2832 24.6531L52.7842 22.5137Z" fill="white"/>
    <path d="M52.5742 26.4898C52.4625 26.4897 52.352 26.4677 52.2489 26.425C52.1458 26.3823 52.0522 26.3197 51.9734 26.241L50.4509 24.7256L53.4241 20.4886V25.643C53.4236 25.8676 53.3337 26.0829 53.174 26.2416C53.0144 26.4003 52.798 26.4896 52.5724 26.4898H52.5742ZM52.1162 24.5798L52.1441 24.6077V24.5398L52.1162 24.5798Z" fill="#1D1D1B"/>
    <path d="M52.8829 23.5111L51.7634 22.1851L51.9855 21.7375C52.4785 20.7955 52.7466 19.7529 52.7691 18.691C52.769 18.4459 52.7522 18.2011 52.7187 17.9583L54.2114 17.6315C54.884 19.8303 53.4781 22.4219 53.4184 22.5315L52.8829 23.5111Z" fill="#1D1D1B"/>
    <path d="M47.1903 29.0786L46.7547 28.398C46.0398 27.2783 45.6403 25.9879 45.598 24.6619C45.5556 23.3359 45.872 22.0229 46.5139 20.8602C47.1559 19.6975 48.0998 18.7278 49.2472 18.0525C50.3945 17.3772 51.703 17.0211 53.0359 17.0214C53.1783 17.0214 53.3204 17.0254 53.4622 17.0335L53.7234 17.0474L54.203 17.4588L54.2421 17.7457C54.2853 18.0574 54.3071 18.3717 54.3074 18.6863C54.2857 19.9832 53.9632 21.2574 53.3652 22.4098C52.0137 24.8585 50.1289 26.9753 47.849 28.6051L47.1903 29.0786ZM52.7691 18.561C51.8077 18.6048 50.8717 18.8817 50.0424 19.3677C49.2132 19.8537 48.5158 20.5339 48.0109 21.3494C47.506 22.1649 47.209 23.0908 47.1457 24.0465C47.0823 25.0023 47.2546 25.959 47.6475 26.8334C49.4257 25.4452 50.9016 23.7114 51.9854 21.7375C52.479 20.7953 52.7474 19.7524 52.77 18.69C52.7709 18.6473 52.77 18.6 52.7691 18.561Z" fill="#1D1D1B"/>
</svg>
