<svg width="122" height="46" viewBox="0 0 122 46" fill="none" xmlns="http://www.w3.org/2000/svg">
<g clip-path="url(#clip0)">
<path d="M92.5006 37.5855C91.7096 38.8701 90.6932 40.0012 89.5001 40.9243C88.269 41.9202 86.7417 42.4785 85.1586 42.5113C83.0762 42.5113 81.8169 41.7292 81.3835 40.1768L80.4941 40.0257L79.7511 43.9958C80.9297 44.6767 82.262 45.0472 83.6229 45.0724C87.4484 45.0724 91.0051 42.5762 94.293 37.584L92.5006 37.5855Z" fill="#1D2E40"/>
<path d="M103.169 33.1716C104.178 33.7918 105.239 34.3228 106.34 34.7587C107.569 35.1885 108.865 35.3956 110.167 35.3702C112.336 35.5077 114.475 34.8047 116.139 33.4072C116.766 32.7967 117.256 32.0607 117.578 31.2475C117.9 30.4342 118.046 29.562 118.007 28.6882C117.819 26.5895 116.814 24.6489 115.207 23.2852C113.558 21.6619 112.532 20.5852 112.127 20.0658C111.41 19.2842 110.983 18.2797 110.919 17.2208C110.918 16.8356 110.997 16.4544 111.149 16.1009C111.302 15.7473 111.526 15.4289 111.807 15.1656C112.527 14.5374 113.465 14.2169 114.419 14.2731C115.259 14.3007 116.078 14.5419 116.799 14.9738C117.549 15.2971 118.16 15.8754 118.525 16.6062C118.697 17.0711 118.777 17.565 118.761 18.0604L119.969 18.4333L121.369 14.0028C119.484 12.9586 117.364 12.4113 115.209 12.4127C114.229 12.3686 113.25 12.5194 112.329 12.8564C111.408 13.1933 110.562 13.7098 109.842 14.3758C109.189 14.9517 108.667 15.6618 108.313 16.4577C107.959 17.2536 107.78 18.1165 107.79 18.9875C107.902 20.8614 108.739 22.6181 110.123 23.8862L113.06 27.0573C114.076 27.9822 114.724 29.243 114.884 30.6075C114.887 30.9684 114.814 31.3258 114.669 31.6561C114.524 31.9865 114.31 32.2822 114.042 32.5238C113.614 32.8915 113.118 33.1708 112.581 33.3457C112.045 33.5207 111.48 33.5878 110.917 33.5431C109.763 33.5436 108.632 33.2219 107.651 32.6144C107.114 32.3747 106.654 31.9895 106.324 31.5022C105.994 31.0149 105.807 30.445 105.785 29.857C105.797 29.5312 105.829 29.2065 105.88 28.8845L104.521 28.5553L103.169 33.1716Z" fill="#1D2E40"/>
<path d="M62.7583 33.1716C63.7669 33.7924 64.828 34.3234 65.9295 34.7586C67.1598 35.183 68.4547 35.39 69.756 35.3702C71.9273 35.5183 74.0708 34.8141 75.7313 33.4072C76.369 32.8033 76.8695 32.0694 77.1989 31.2552C77.5282 30.4411 77.6787 29.5656 77.6401 28.6882C77.5441 27.6449 77.2434 26.6306 76.7553 25.7036C76.2671 24.7765 75.601 23.9547 74.795 23.2852C73.7148 22.2654 72.6877 21.1908 71.7176 20.0658C71.0212 19.2746 70.6097 18.273 70.5487 17.2208C70.5479 16.8358 70.6262 16.4547 70.7787 16.1012C70.9312 15.7477 71.1546 15.4292 71.4352 15.1656C72.1404 14.5424 73.0626 14.2218 74.0023 14.2731C74.8423 14.3005 75.6613 14.5417 76.3822 14.9738C77.1326 15.2975 77.7448 15.8756 78.1111 16.6062C78.2807 17.0717 78.3602 17.5652 78.3452 18.0604L79.5533 18.4333L80.9531 14.0028C79.0672 12.9582 76.9464 12.411 74.7905 12.4127C73.8104 12.3693 72.8314 12.5204 71.91 12.8573C70.9886 13.1943 70.1431 13.7104 69.4223 14.3758C68.7691 14.9521 68.2477 15.6622 67.8936 16.458C67.5395 17.2538 67.3609 18.1165 67.3701 18.9875C67.4828 20.8619 68.3206 22.6188 69.7061 23.8862L72.6417 27.0573C73.6581 27.9821 74.3064 29.2428 74.4674 30.6075C74.4706 30.9685 74.397 31.3261 74.2514 31.6564C74.1059 31.9868 73.8918 32.2825 73.6232 32.5238C73.2036 32.8895 72.7154 33.168 72.187 33.343C71.6586 33.518 71.1007 33.586 70.5458 33.5431C69.3766 33.5473 68.2293 33.2257 67.2326 32.6144C66.6951 32.3749 66.2354 31.9896 65.9055 31.5023C65.5757 31.015 65.3888 30.445 65.3662 29.857C65.3877 29.5297 65.4347 29.2045 65.5066 28.8845L64.1068 28.5553L62.7583 33.1716Z" fill="#1D2E40"/>
<path d="M60.7545 28.6459C59.2917 30.7902 58.1733 31.8634 57.3991 31.8654C56.6788 31.8654 56.3224 31.4818 56.3224 30.695C56.364 29.8949 56.4736 29.0998 56.6501 28.3182L60.0115 12.4112C59.4249 12.5015 58.8322 12.5469 58.2387 12.5471C57.988 12.5471 57.4263 12.538 56.5535 12.5033C55.7139 12.4459 55.0902 12.4127 54.6885 12.4127C51.1939 12.3966 47.7997 13.5812 45.0739 15.7681C42.6177 17.7225 40.6401 20.212 39.2919 23.0466C38.1142 25.1811 37.4425 27.5576 37.3289 29.9929C37.2805 31.2638 37.6225 32.5191 38.3089 33.5899C38.6614 34.1569 39.1579 34.6202 39.7479 34.9327C40.3378 35.2452 41.0002 35.3956 41.6672 35.3687C43.9988 35.3687 46.441 33.9215 48.9941 31.0273C50.9142 28.7848 52.5443 26.3095 53.8459 23.6597L53.9365 23.7473L53.1467 27.0558C52.7012 28.8615 52.4512 30.7099 52.4008 32.5691C52.4008 34.44 53.1558 35.3687 54.684 35.3687C56.7709 35.3687 59.2137 33.2828 62.0124 29.111L60.7545 28.6459ZM41.249 29.7256C41.3185 27.9171 41.698 26.134 42.3709 24.454C43.0124 22.7034 43.8406 21.0271 44.8414 19.4541C45.8859 17.6798 47.3852 16.2166 49.1844 15.2154C50.7097 14.5392 52.3686 14.218 54.0361 14.2761C54.6175 14.2798 55.197 14.3436 55.7652 14.4664C55.5769 17.6074 53.9421 21.4962 50.8605 26.1331C47.783 30.7338 45.2476 33.0347 43.2544 33.0357C41.9164 33.0357 41.249 31.9363 41.249 29.7256Z" fill="#1D2E40"/>
<path d="M0.00499042 18.1511C-0.0704986 20.5312 0.341748 22.9017 1.21639 25.1166C2.09103 27.3315 3.40956 29.344 5.09089 31.0304C6.73217 32.6777 8.6911 33.9742 10.8488 34.8412C13.0064 35.7082 15.3178 36.1276 17.6425 36.0741C20.4517 36.2112 23.2559 35.7161 25.8482 34.6252C28.4406 33.5344 30.755 31.8755 32.6209 29.771C35.5947 26.4532 37.225 22.1459 37.1934 17.6905C37.2754 15.3373 36.8657 12.9929 35.9905 10.807C35.1153 8.62112 33.7938 6.64176 32.1105 4.99541C30.3666 3.31981 28.3016 2.01452 26.0399 1.15811C23.7782 0.301698 21.3666 -0.0880893 18.9503 0.0122184C16.3424 -0.0571672 13.7503 0.436482 11.3505 1.45956C8.9507 2.48264 6.79969 4.0111 5.04406 5.94072C1.81859 9.19115 0.00751376 13.584 0.00499042 18.1632V18.1511ZM4.71789 18.4002C4.59957 14.1106 6.15618 9.94341 9.05783 6.78182C10.3488 5.29098 11.9471 4.09727 13.7431 3.2827C15.5391 2.46812 17.4901 2.05197 19.4622 2.06286C21.1748 2.03301 22.8738 2.37197 24.4439 3.0567C26.014 3.74143 27.4184 4.75592 28.5618 6.03132C31.2522 9.03143 32.6614 12.9654 32.488 16.9914C32.6297 21.4072 31.1523 25.7225 28.3338 29.1248C27.0913 30.6858 25.5065 31.9402 23.7019 32.7912C21.8974 33.6421 19.9213 34.0668 17.9264 34.0325C15.9772 34.0992 14.0423 33.6767 12.2982 32.8036C10.5542 31.9305 9.05651 30.6346 7.94189 29.0341C5.74908 25.9293 4.61967 22.1984 4.72242 18.3988" fill="#1D2E40"/>
<path d="M94.29 37.5795C94.5618 37.1642 94.8292 36.7444 95.0965 36.2914L99.0649 29.7181C103.796 21.8154 106.162 16.8825 106.162 14.9194C106.162 13.2432 105.558 12.4047 104.35 12.4037C103.408 12.4571 102.501 12.7794 101.736 13.3323C100.845 13.9393 99.9882 14.5946 99.1691 15.2954L99.5889 16.3268C100.102 15.8544 100.763 15.5743 101.46 15.534C102.235 15.534 102.623 16.0006 102.623 16.9278C102.623 18.2667 101.611 20.8636 99.5889 24.7182L95.3909 32.7457H95.2973C95.0175 31.0343 94.582 28.9026 93.991 26.3506C93.2466 23.0874 92.8555 21.3674 92.8253 21.227C92.4198 18.6453 91.5821 16.1505 90.3473 13.8473C90.103 13.4192 89.752 13.0616 89.3287 12.8092C88.9053 12.5568 88.4239 12.4181 87.9311 12.4067C86.407 12.4067 84.3699 13.9938 81.8199 17.1679L81.0256 18.1434L82.1945 19.0268C83.5324 16.9414 84.7615 15.91 85.8775 15.91C87.154 15.91 88.1501 17.4201 88.8659 20.4402L92.7815 37.137C92.697 37.288 92.6093 37.439 92.5202 37.59L94.29 37.5795Z" fill="#1D2E40"/>
</g>
<defs>
<clipPath id="clip0">
<rect width="121.37" height="45.0754" fill="white"/>
</clipPath>
</defs>
</svg>
