<svg width="118" height="32" viewBox="0 0 118 32" fill="none" xmlns="http://www.w3.org/2000/svg">
<path d="M77.099 32C70.4711 32 67.5989 28.9 66.4778 27.0531C65.1952 24.915 65.0292 22.0205 65.0292 19.7356V4.79107C65.0292 4.64659 65.0315 4.50207 65.0337 4.35308C65.0577 2.79518 65.0817 1.32308 62.7438 1.24632H62V0H73.9848L73.9932 1.25535L73.7797 1.25309C72.8855 1.24405 72.2048 1.49016 71.7208 1.98461C71.1473 2.57393 70.855 3.51769 70.855 4.79107V21.2302C70.855 26.7957 73.1929 29.618 77.8037 29.618C80.4121 29.618 82.6062 28.821 83.9783 27.3737C86.196 25.0008 86.3731 21.9256 86.3731 18.1505V4.74593C86.3731 2.76358 86.1831 1.24857 83.7838 1.24857H83.1601V0H92V1.24857H91.6267C89.8561 1.24857 88.8311 1.8198 88.8311 4.74593V18.3786C88.8329 27.5453 84.9944 32 77.099 32Z" fill="#F40808"/>
<path d="M107.294 32H96V30.7319L96.191 30.7249C98.8381 30.6396 98.9734 29.6898 98.9734 26.9599V4.87412C98.9734 2.03356 98.875 1.36033 96.302 1.27502L96.111 1.2681V0H107.633C114.439 0 118 4.47986 118 8.90436C118 13.9676 113.979 17.9333 108.848 17.9333L106.306 17.8918V15.6507C106.306 15.6507 107.269 15.6392 107.62 15.6392C110.778 15.6392 112.403 12.9577 112.403 8.96663C112.403 4.80955 110.029 2.01512 106.497 2.01512L104.226 2.00821V27.474C104.226 30.1485 104.657 30.6327 107.105 30.7226L107.296 30.7296V32H107.294Z" fill="#F40808"/>
<path d="M62 32H53.5791L44.5694 17.1332V15.3187L44.7521 15.2979C47.9118 14.936 50.8783 12.9623 50.8783 8.5055C50.8783 4.76576 48.3985 2.15579 44.8477 2.15579H42.4168V27.474C42.4168 30.2316 43.5834 30.5059 45.2324 30.5889L45.4255 30.5982V31.9977H34V30.7111L34.1934 30.6996C36.671 30.5498 37.0216 29.8765 37.0216 27.4717V4.52364C36.9303 1.68312 36.7688 1.31882 34.2019 1.27502L34.0021 1.27272V0H46.3098C51.0035 0 56.4857 2.23875 56.4857 8.55163C56.4857 12.3144 54.3844 15.0144 50.2363 16.5799L54.9115 24.0686C55.4212 24.917 57.2954 27.3841 58.135 28.3894C59.7348 30.2569 60.8865 30.5151 61.6493 30.6858L62 30.7665V32Z" fill="#F40808"/>
<path d="M29.9978 31.9977H18.6937V30.7481L18.8941 30.7412C20.2751 30.6905 21.1303 30.3677 21.1303 28.9245C21.1303 28.279 20.6585 27.0156 20.4043 26.3354L18.5666 21.6323H8.35692L6.48044 26.2063C5.85782 27.7164 5.67685 28.2628 5.67685 28.9706C5.67685 30.0104 5.67685 30.6974 7.94972 30.7412L8.15226 30.7458V32H0V30.7481L0.202515 30.7435C1.81831 30.7043 2.65853 29.8259 3.80036 26.9833L14.8589 0H15.9943L16.0481 0.133717L27.139 28.0807C27.9382 30.1625 28.1278 30.6559 29.8018 30.7297L30 30.7389V31.9977H29.9978ZM9.19496 19.4674H17.7393L13.5619 8.6225L9.19496 19.4674Z" fill="#F40808"/>
</svg>
